<?xml version="1.0" encoding="UTF-8"?>
<!-- Generator: Adobe Illustrator 24.2.3, SVG Export Plug-In . SVG Version: 6.00 Build 0)  -->
<svg xmlns="http://www.w3.org/2000/svg" xmlns:xlink="http://www.w3.org/1999/xlink" version="1.1" id="Capa_1" x="0px" y="0px" viewBox="0 0 512 512" style="enable-background:new 0 0 512 512;" xml:space="preserve" width="512" height="512">
<g>
	<path d="M411.54,256.183h-41.863v-55.079c0-6.075-4.925-11-11-11H60.814c-6.075,0-11,4.925-11,11v227.715   c0,45.866,37.426,83.181,83.428,83.181h153.006c46.002,0,83.428-37.315,83.428-83.181v-3.229h41.863   c27.927,0,50.647-22.72,50.647-50.647V306.83C462.187,278.903,439.466,256.183,411.54,256.183z M347.676,428.819   c0,33.735-27.557,61.181-61.428,61.181H133.242c-33.872,0-61.428-27.446-61.428-61.181V212.104h275.863V428.819z M440.187,374.943   c0,15.796-12.851,28.647-28.647,28.647h-41.863V278.183h41.863c15.796,0,28.647,12.851,28.647,28.647V374.943z"/>
	<g>
		<path style="fill:#33CCCC;" d="M238.76,151.108c-2.71,0-5.425-0.995-7.551-3.003c-4.417-4.171-4.616-11.133-0.444-15.55    c7.572-8.019,11.78-15.598,12.861-23.173c0.917-6.415-0.79-14.104-4.148-18.696c-1.472-2.013-4.28-4.088-7.252-6.285    c-3.976-2.938-8.481-6.269-11.937-10.992c-10.53-14.399-11.326-35.909-1.981-53.524c0.095-0.179,0.195-0.356,0.3-0.53    c3.369-5.58,7.458-10.932,12.156-15.907c4.17-4.417,11.132-4.617,15.55-0.446c4.417,4.171,4.617,11.133,0.446,15.55    c-3.546,3.755-6.625,7.759-9.155,11.903c-5.257,10.124-5.087,22.407,0.441,29.966c1.473,2.014,4.281,4.089,7.254,6.286    c3.975,2.938,8.481,6.268,11.935,10.992c6.78,9.271,9.91,22.603,8.169,34.793c-1.747,12.229-7.846,23.732-18.646,35.168    C244.595,149.952,241.68,151.108,238.76,151.108z"/>
	</g>
	<g>
		<path style="fill:#33CCCC;" d="M173.693,149.075c-2.414,0-4.844-0.791-6.874-2.418c-4.74-3.8-5.501-10.723-1.701-15.463    c1.99-2.482,3.685-5.089,5.042-7.756c1.633-3.965,2.012-9.098,0.913-12.587c-0.92-2.921-1.741-3.701-4.177-6.018    c-1.4-1.331-3.143-2.988-4.993-5.217c-5.653-6.812-8.8-16.795-8.212-26.054c0.58-9.13,4.318-17.878,11.429-26.746    c3.8-4.74,10.724-5.5,15.463-1.7c4.74,3.8,5.501,10.724,1.7,15.463c-4.182,5.216-6.353,9.919-6.636,14.377    c-0.231,3.645,1.108,8.107,3.186,10.61c1.02,1.229,2.041,2.199,3.222,3.322c3.286,3.124,7.376,7.012,10.003,15.352    c2.695,8.554,2.002,19.352-1.808,28.179c-0.08,0.186-0.166,0.37-0.256,0.552c-2.077,4.163-4.671,8.195-7.709,11.984    C180.109,147.666,176.916,149.075,173.693,149.075z"/>
	</g>
</g>















</svg>
