<?xml version="1.0" encoding="UTF-8"?>
<!-- Generator: Adobe Illustrator 24.2.3, SVG Export Plug-In . SVG Version: 6.00 Build 0)  -->
<svg xmlns="http://www.w3.org/2000/svg" xmlns:xlink="http://www.w3.org/1999/xlink" version="1.1" id="Capa_1" x="0px" y="0px" viewBox="0 0 512 512" style="enable-background:new 0 0 512 512;" xml:space="preserve" width="512" height="512">
<g>
	<g>
		<path style="fill:#33CCCC;" d="M98.788,365.4v17.755c0,25.594,20.822,46.416,46.416,46.416s46.416-20.822,46.416-46.416v-64.293    c0-9.257,7.531-16.787,16.788-16.787s16.788,7.53,16.788,16.787v4.904c0,24.692,20.089,44.781,44.781,44.781    c15.139,0,28.537-7.559,36.646-19.093l-13.877-25.275c-0.222,12.371-10.347,22.368-22.77,22.368    c-12.562,0-22.781-10.22-22.781-22.781v-4.904c0-21.388-17.4-38.787-38.788-38.787s-38.788,17.399-38.788,38.787v64.293    c0,13.463-10.953,24.416-24.416,24.416s-24.416-10.953-24.416-24.416v-57.508L98.788,365.4z"/>
		<path style="fill:#33CCCC;" d="M313.44,316.16c-0.01-0.017-0.019-0.035-0.029-0.052L313.44,316.16z"/>
	</g>
	<path d="M510.582,495.761L357.143,201.435c-8.591-18.503-35.637-18.786-44.566-0.474l-30.9,57.344l-52.524-95.667   c-0.05-0.091-0.102-0.182-0.154-0.271c-2.538-4.327-6.186-7.676-10.479-9.781v-52.98l63.37,0.123l-7.47,26.831   c-0.923,3.312-0.243,6.866,1.837,9.604c2.08,2.738,5.321,4.347,8.76,4.347h157.377c4.78,0,9.014-3.088,10.474-7.64   c1.461-4.552-0.186-9.525-4.073-12.307l-37.723-26.985l38.801-35.969c3.318-3.076,4.414-7.871,2.762-12.084   s-5.715-6.983-10.24-6.983h-92.777l6.711-24.65c0.9-3.308,0.208-6.846-1.873-9.568C352.373,1.598,349.142,0,345.714,0H207.52   c-6.075,0-11,4.925-11,11v77.562c0,0.014,0,0.028,0,0.042v63.967c-4.28,2.092-7.923,5.419-10.467,9.721   c-0.053,0.09-0.105,0.181-0.156,0.272L1.548,495.674c-1.886,3.407-1.829,7.558,0.148,10.912S7.278,512,11.172,512l489.656-0.154   c3.846,0,7.412-2.008,9.405-5.296C512.228,503.262,512.36,499.171,510.582,495.761z M414.347,60.54l-28.122,26.069   c-2.424,2.247-3.709,5.465-3.499,8.763c0.209,3.299,1.89,6.328,4.577,8.251l20.808,14.885H299.498l5.216-18.737l19.795,0.038   c0.008,0,0.015,0,0.021,0c4.962,0,9.311-3.322,10.613-8.11l8.483-31.159H414.347z M218.52,22H331.32L316.13,77.793l-97.61-0.188V22   z M29.832,490l175.213-316.6c1.36-1.856,3.571-1.854,4.924,0.009L383.784,490H29.832z M408.797,489.846L294.289,281.277   l37.753-70.061c1.065-2.619,4.527-2.587,5.497,0.203l145.15,278.427H408.797z"/>
</g>















</svg>
