<?xml version="1.0" encoding="UTF-8"?>
<!-- Generator: Adobe Illustrator 24.2.3, SVG Export Plug-In . SVG Version: 6.00 Build 0)  -->
<svg xmlns="http://www.w3.org/2000/svg" xmlns:xlink="http://www.w3.org/1999/xlink" version="1.1" id="Capa_1" x="0px" y="0px" viewBox="0 0 512 512" style="enable-background:new 0 0 512 512;" xml:space="preserve" width="512" height="512">
<g>
	<g>
		<path style="fill:#33CCCC;" d="M409.508,512c-1.523,0-3.045-0.316-4.467-0.948c-59.549-26.466-98.027-85.673-98.028-150.838    l0-62.532c0-4.347,2.56-8.286,6.532-10.052c63.674-28.301,128.246-28.303,191.923-0.002c3.973,1.766,6.533,5.705,6.533,10.052    l0,62.532c0,65.165-38.477,124.373-98.024,150.84C412.553,511.684,411.03,512,409.508,512z M329.012,304.941l0,55.272    c0.001,54.832,31.436,104.799,80.496,128.656C458.566,465.012,490,415.044,490,360.212l0-55.272    C436.548,282.996,382.463,282.995,329.012,304.941z"/>
	</g>
	<g>
		<path style="fill:#33CCCC;" d="M398.724,421.739c-2.815,0-5.63-1.074-7.778-3.222l-21.565-21.564    c-4.296-4.296-4.296-11.261,0-15.557s11.26-4.295,15.556,0l13.787,13.786l35.352-35.353c4.296-4.295,11.261-4.295,15.556,0    c4.296,4.296,4.296,11.261,0,15.557l-43.13,43.131C404.354,420.665,401.539,421.739,398.724,421.739z"/>
	</g>
	<path d="M296.44,438.222c6.76-7.398,13.14-16.05,19.055-25.854c-3.59-10.758-6.094-21.946-7.405-33.413   c-16.767,37.629-38.995,61.311-62.435,67.002l-0.001-87.087l61.359-0.001l0-22l-61.36,0.001l-0.001-91.217l89.677-0.001   c-0.288,11.511-1.029,22.954-2.211,34.197c7.574-2.67,15.157-4.954,22.748-6.828c0.76-9.046,1.249-18.19,1.468-27.37l89.682-0.001   c-0.407,7.901-1.26,15.777-2.535,23.574c7.186,1.155,14.367,2.673,21.543,4.54c2.168-12.905,3.28-26.016,3.28-39.114   c0-62.678-24.409-121.604-68.729-165.924S297.327-0.001,234.649,0S113.045,24.41,68.726,68.729C24.407,113.05,0,171.977,0,234.654   s24.41,121.604,68.729,165.923c44.321,44.319,103.247,68.727,165.924,68.726c34.214,0,67.03-7.17,97.716-21.28   c-3.909-6.219-7.414-12.693-10.469-19.391C313.579,432.39,305.088,435.593,296.44,438.222z M223.652,336.869l-77.164,0.001   c-7.434-27.866-11.732-58.865-12.527-91.217l89.69-0.001L223.652,336.869z M223.651,223.652l-89.684,0.001   c0.807-31.614,5.073-61.653,11.989-88.435l77.694-0.001L223.651,223.652z M223.649,23.337l0.001,89.88l-71.175,0.001   C168.882,64.556,194.63,30.333,223.649,23.337z M172.565,31.255c-9.801,10.823-18.825,24.329-26.827,40.333   c-6.378,12.757-11.914,26.727-16.566,41.631l-68.988,0.001C87.138,74.611,126.558,45.326,172.565,31.255z M46.728,135.22   l76.385-0.001c-6.608,27.469-10.425,57.414-11.155,88.435l-89.676,0.001C23.91,191.841,32.575,161.86,46.728,135.22z    M22.282,245.654l89.675-0.001c0.756,32.072,4.812,62.993,11.84,91.217l-75.712,0.001   C32.786,309.041,23.921,278.017,22.282,245.654z M84.286,385.021c-8.191-8.191-15.618-16.941-22.274-26.15l68.044-0.001   c4.466,13.861,9.705,26.887,15.685,38.847c8.036,16.071,17.103,29.62,26.952,40.466C139.656,428.172,109.386,410.12,84.286,385.021   z M165.419,387.878c-4.517-9.033-8.581-18.74-12.175-29.008l70.409-0.001l0.001,87.104   C202.162,440.816,181.805,420.65,165.419,387.878z M447.021,223.649l-89.676,0.001c-0.731-31.021-4.549-60.965-11.158-88.435   l76.542-0.001C437.105,162.323,445.437,192.362,447.021,223.649z M385.017,84.282c9.013,9.013,17.11,18.698,24.26,28.933   l-69.149,0.001c-4.652-14.903-10.188-28.873-16.567-41.63c-8.036-16.071-17.103-29.62-26.952-40.466   C329.647,41.13,359.917,59.183,385.017,84.282z M245.649,23.33c21.492,5.157,41.848,25.323,58.235,58.095   c4.922,9.844,9.305,20.493,13.129,31.792l-71.363,0.001L245.649,23.33z M245.65,135.217l77.885-0.001   c6.987,27.143,11.037,57.153,11.806,88.435l-89.69,0.001L245.65,135.217z"/>
</g>















</svg>
