<?xml version="1.0" encoding="UTF-8"?>
<!-- Generator: Adobe Illustrator 24.2.3, SVG Export Plug-In . SVG Version: 6.00 Build 0)  -->
<svg xmlns="http://www.w3.org/2000/svg" xmlns:xlink="http://www.w3.org/1999/xlink" version="1.1" id="Capa_1" x="0px" y="0px" viewBox="0 0 512 512" style="enable-background:new 0 0 512 512;" xml:space="preserve" width="512" height="512">
<g>
	<path d="M501,356.737h-24.58V82.161c0-6.075-4.925-11-11-11H46.58c-6.075,0-11,4.925-11,11v274.576H11c-6.075,0-11,4.925-11,11   v21.378c0,28.521,22.987,51.724,51.242,51.724h409.516c28.255,0,51.242-23.203,51.242-51.724v-21.378   C512,361.662,507.075,356.737,501,356.737z M57.58,93.161H454.42v263.576H341.516c-6.584-0.036-11.554,5.743-11,12.217h-149.03   c0.554-6.474-4.417-12.254-11-12.217H57.58V93.161z M490,389.115c0,16.39-13.118,29.724-29.242,29.724H51.242   C35.118,418.839,22,405.505,22,389.115v-10.378h137.486c-0.554,6.474,4.417,12.254,11,12.217h171.03   c6.584,0.036,11.554-5.743,11-12.217H490V389.115z"/>
	<g>
		<path style="fill:#33CCCC;" d="M109.609,314.227c-2.815,0-5.63-1.074-7.778-3.222c-4.296-4.296-4.296-11.261,0-15.557    l82.345-82.345c2.1-2.099,4.96-3.258,7.927-3.221c2.969,0.04,5.795,1.278,7.837,3.434l56.397,59.53L394.737,138.77    c4.363-4.229,11.328-4.117,15.554,0.247c4.228,4.363,4.117,11.327-0.247,15.554l-146.39,141.816    c-2.111,2.045-4.936,3.146-7.89,3.097c-2.938-0.063-5.729-1.299-7.75-3.432l-56.274-59.4l-74.354,74.354    C115.239,313.153,112.424,314.227,109.609,314.227z"/>
	</g>
</g>















</svg>
