<?xml version="1.0" encoding="UTF-8"?>
<!-- Generator: Adobe Illustrator 24.2.3, SVG Export Plug-In . SVG Version: 6.00 Build 0)  -->
<svg xmlns="http://www.w3.org/2000/svg" xmlns:xlink="http://www.w3.org/1999/xlink" version="1.1" id="Capa_1" x="0px" y="0px" viewBox="0 0 512 512" style="enable-background:new 0 0 512 512;" xml:space="preserve" width="512" height="512">
<g>
	<path d="M498.615,271.177C506.84,263.589,512,252.724,512,240.679c0-22.882-18.616-41.498-41.498-41.498h-81.51v-80.494   c0-39.698-32.297-71.995-71.996-71.995c-11.161-0.175-11.675,12.297-11,20.523c-0.001,39.268-14.312,77.123-40.295,106.592   c-14.219,16.126-35.262,25.375-57.734,25.375c-11.362,0-30.158,0.001-43.412,0.001c-0.016,0-0.032-0.002-0.048-0.002H11   c-6.075,0-11,4.925-11,11v213.485c0,6.075,4.925,11,11,11h103.947c36.907,1.011,82.772-3.786,118.343,6.801   c0,0,53.354,14.79,53.354,14.79c35.809,11.419,85.504,8.707,122.861,8.906c22.882,0,41.498-18.616,41.498-41.498   c0-7.216-1.855-14.006-5.108-19.924c20.1-2.871,35.606-20.19,35.606-41.072c0-7.212-1.85-14.001-5.1-19.916   C496.5,339.882,512,322.554,512,301.675C512,289.629,506.84,278.764,498.615,271.177z M22,412.666V221.18l131.506,0.002v191.484H22   z M409.506,282.177h60.996c10.751,0,19.498,8.747,19.498,19.498s-8.747,19.498-19.498,19.498h-60.996c-6.075,0-11,4.925-11,11   s4.925,11,11,11h30.498c10.751,0,19.498,8.747,19.498,19.498s-8.747,19.497-19.498,19.497h-30.498c-6.075,0-11,4.925-11,11   s4.925,11,11,11c10.751,0,19.498,8.747,19.498,19.498s-8.747,19.498-19.498,19.498h-57.387c-20.14,0-40.191-2.728-59.598-8.107   l-53.354-14.79c-18.195-5.043-36.993-7.601-55.87-7.601h-7.791V221.182l32.461-0.001c28.784,0,55.841-11.964,74.236-32.825   c28.935-32.815,45.132-74.786,45.773-118.45c22.304,5.017,39.016,24.983,39.016,48.78v80.494h-19.498c-6.075,0-11,4.925-11,11   s4.925,11,11,11h123.008c10.751,0,19.498,8.747,19.498,19.498s-8.747,19.498-19.498,19.498h-60.996c-6.075,0-11,4.925-11,11   S403.431,282.177,409.506,282.177z"/>
	<g>
		<path style="fill:#33CCCC;" d="M103.51,373.668c-3.615,0.026-7.155-1.876-9.15-4.891c-7.065-11.213,7.334-22.986,16.93-13.88    C118.186,361.68,113.188,373.756,103.51,373.668z"/>
	</g>
</g>















</svg>
