<?xml version="1.0" encoding="UTF-8"?>
<!-- Generator: Adobe Illustrator 24.2.3, SVG Export Plug-In . SVG Version: 6.00 Build 0)  -->
<svg xmlns="http://www.w3.org/2000/svg" xmlns:xlink="http://www.w3.org/1999/xlink" version="1.1" id="Capa_1" x="0px" y="0px" viewBox="0 0 512 512" style="enable-background:new 0 0 512 512;" xml:space="preserve" width="512" height="512">
<g>
	<g>
		<g>
			<g>
				<path d="M122.407,512H12.016c-6.075,0-11-4.925-11-11v-91.494c0-3.395,1.567-6.599,4.247-8.683l91.689-71.313      c19.676-15.304,44.239-23.731,69.166-23.731h149.792c22.882,0,41.497,18.616,41.497,41.498c0,5.331-1.011,10.431-2.85,15.117      c0.204-0.167,0.406-0.338,0.604-0.514l84.333-74.6c16.953-14.996,43.765-14.176,59.771,1.828c0,0,0,0,0,0.001      c7.845,7.845,12.001,18.272,11.702,29.363c-0.298,11.09-5.009,21.279-13.264,28.69l-110.601,99.309      c-16.971,15.238-38.878,23.63-61.685,23.63H185.545l-56.815,39.9C126.877,511.303,124.67,512,122.407,512z M23.016,490h95.914      l56.815-39.9c1.853-1.301,4.06-1.998,6.322-1.998H325.42c17.373,0,34.06-6.393,46.987-17.999l110.6-99.309      c3.716-3.336,5.836-7.922,5.97-12.913c0.135-4.991-1.735-9.685-5.266-13.216h-0.001c-7.803-7.803-21.375-8.216-29.638-0.906      l-84.333,74.6c-7.593,6.717-17.358,10.416-27.495,10.416H210.963c-6.075,0-11-4.925-11-11s4.925-11,11-11h104.948      c10.751,0,19.497-8.747,19.497-19.498s-8.746-19.498-19.497-19.498H166.119c-20.059,0-39.826,6.782-55.66,19.097l-87.442,68.011      V490z"/>
			</g>
		</g>
	</g>
	<path style="fill:#33CCCC;" d="M297.897,121.917c15.982-12.49,26.287-31.925,26.287-53.734C324.183,30.587,293.596,0,256,0   s-68.184,30.587-68.184,68.184c0,21.809,10.304,41.244,26.287,53.734c-41.373,16.147-70.763,56.429-70.763,103.45v14.367   c0,6.075,4.925,11,11,11h203.32c6.075,0,11-4.925,11-11v-14.367C368.66,178.346,339.27,138.065,297.897,121.917z M256,22   c25.466,0,46.184,20.718,46.184,46.184S281.466,114.367,256,114.367s-46.184-20.718-46.184-46.184S230.534,22,256,22z    M346.66,228.734H165.34c-1.949-51.471,40.845-94.297,92.321-92.367C307.994,136.26,348.462,178.518,346.66,228.734z"/>
</g>















</svg>
