<?xml version="1.0" encoding="UTF-8"?>
<!-- Generator: Adobe Illustrator 24.2.3, SVG Export Plug-In . SVG Version: 6.00 Build 0)  -->
<svg xmlns="http://www.w3.org/2000/svg" xmlns:xlink="http://www.w3.org/1999/xlink" version="1.1" id="Capa_1" x="0px" y="0px" viewBox="0 0 512 512" style="enable-background:new 0 0 512 512;" xml:space="preserve" width="512" height="512">
<g id="_x3C_Group_x3E__27_">
	<g>
		<g>
			<rect x="123.008" y="419.489" style="fill:#33CCCC;" width="22" height="38.996"/>
			<rect x="123.008" y="53.515" style="fill:#33CCCC;" width="22" height="38.996"/>
			<rect x="245" y="419.489" style="fill:#33CCCC;" width="22" height="38.996"/>
			<rect x="245" y="53.515" style="fill:#33CCCC;" width="22" height="38.996"/>
			<rect x="366.992" y="419.489" style="fill:#33CCCC;" width="22" height="38.996"/>
			<rect x="366.992" y="53.515" style="fill:#33CCCC;" width="22" height="38.996"/>
		</g>
	</g>
	<g>
		<path d="M195.003,358.494c-1.678,0-3.361-0.383-4.918-1.161c-3.727-1.863-6.081-5.672-6.081-9.839V164.506    c0-4.167,2.354-7.976,6.081-9.839c3.726-1.863,8.187-1.462,11.519,1.039L323.596,247.2c2.771,2.077,4.4,5.338,4.4,8.8    s-1.63,6.723-4.4,8.8l-121.992,91.494C199.663,357.75,197.34,358.494,195.003,358.494z M206.004,186.506v138.988L298.663,256    L206.004,186.506z"/>
	</g>
	<path d="M471,31.515H41c-22.607,0-41,18.393-41,41v366.971c0,22.607,18.393,41,41,41h430c22.607,0,41-18.393,41-41V72.515   C512,49.907,493.607,31.515,471,31.515z M22,114.511h468v282.979H22V114.511z M41,53.515h430c10.477,0,19,8.523,19,19v19.996H22   V72.515C22,62.038,30.523,53.515,41,53.515z M471,458.485H41c-10.477,0-19-8.523-19-19v-19.996h468v19.996   C490,449.962,481.477,458.485,471,458.485z"/>
</g>















</svg>
