<?xml version="1.0" encoding="UTF-8"?>
<svg version="1.1" viewBox="0 0 113.66 113.66" xmlns="http://www.w3.org/2000/svg" xmlns:cc="http://creativecommons.org/ns#" xmlns:dc="http://purl.org/dc/elements/1.1/" xmlns:rdf="http://www.w3.org/1999/02/22-rdf-syntax-ns#">
<metadata>
<rdf:RDF>
<cc:Work rdf:about="">
<dc:format>image/svg+xml</dc:format>
<dc:type rdf:resource="http://purl.org/dc/dcmitype/StillImage"/>
<dc:title/>
</cc:Work>
</rdf:RDF>
</metadata>
<g transform="translate(-143.27 -129.05)">
<path d="m200.13 129.05c57.541 1.3573 56.816 0.65828 56.8 56.858-9e-3 30.045-26.012 56.8-56.858 56.8-56.869 0-56.816 1.3536-56.8-56.858 9e-3 -31.374 25.454-56.8 56.829-56.8" fill="#666" opacity=".91" stroke-width="0"/>
<g transform="matrix(1.8969 0 0 1.8969 -54.516 -195.41)">
<path d="m158.81 190.28c1.1907 0.5954 2.1278 1.4002 2.8114 2.4145 0.68352 1.0144 0.92608 2.2492 0.72766 3.7045-0.17645 0.97024-0.54028 1.9735-1.0915 3.0099-0.52925 1.0364-1.1687 2.0507-1.9184 3.043-0.72771 0.99229-1.5215 1.9515-2.3814 2.8776-0.83795 0.90408-1.6318 1.731-2.3814 2.4807-2.8225 2.6681-5.8985 5.0055-9.2281 7.012-3.3296 2.0066-6.8246 3.7045-10.485 5.0936-2.2271 0.81587-4.4211 1.4774-6.582 1.9845-2.1389 0.50716-4.1014 0.89304-5.8875 1.1576-1.7861 0.2646-3.3076 0.44101-4.5644 0.52921-1.2569 0.0882-2.0948 0.12127-2.5138 0.0992-0.0221 0-0.0882-0.011-0.19846-0.0331-0.11025-0.0221-0.23153-0.0551-0.36383-0.0992-0.1323-0.0221-0.24255-0.0551-0.33076-0.0992-0.11024-0.0221-0.16537-0.0552-0.16537-0.0992-0.0221-0.0221 0.1323-0.0661 0.46306-0.1323 0.30871-0.0441 0.66151-0.0992 1.0584-0.16538 0.37486-0.0661 0.73869-0.12128 1.0915-0.16538 0.35281-0.0441 0.55127-0.0661 0.59537-0.0661 2.5358-0.46306 5.2149-1.1025 8.0374-1.9184 2.8445-0.79381 5.667-1.7751 8.4674-2.9437 2.8224-1.1466 5.5346-2.4586 8.1366-3.936 2.624-1.4994 4.9944-3.1642 7.1113-4.9944 1.2348-1.0364 2.4476-2.0948 3.6383-3.1753 1.1907-1.0805 2.2932-2.1389 3.3076-3.1753 1.0143-1.0584 1.9183-2.0727 2.7122-3.043 0.79377-0.99224 1.4002-1.9184 1.8192-2.7784 0.41892-0.85994 0.54611-1.6427 0.54616-2.3484-5e-5 -0.72764-0.27567-1.345-0.8269-1.8522-0.66155-0.55123-1.5054-0.94814-2.6961-1.1907-1.1908-0.26458-2.5248-0.41892-4.0022-0.46305-1.4554-0.0662-2.9989-0.0331-4.6306 0.0992-1.6318 0.11029-3.2084 0.25361-4.7298 0.42999-1.5215 0.17643-2.9327 0.37488-4.2337 0.59536-1.2789 0.19848-2.3263 0.36386-3.1422 0.49613-1.8302 0.30874-3.5832 0.65052-5.259 1.0254-1.6758 0.35283-3.4178 0.68359-5.226 0.99227-0.0441 2e-5 -0.0992 2e-5 -0.16538 0-0.0441 2e-5 -0.0551-0.022-0.0331-0.0661 0.0221-0.0441 0.11024-0.11023 0.2646-0.19846 1.6317-0.63943 3.1532-1.2127 4.5644-1.7199 1.4333-0.50713 2.9658-0.98122 4.5975-1.4222 5.0716-1.4333 10.22-2.183 15.446-2.2492 1.2568 3e-5 2.5468 0.0772 3.8698 0.23153 1.323 0.13234 2.5799 0.48514 3.7706 1.0584m-33.01 25.104c-0.0662-0.0441-0.0772-0.1323-0.0331-0.26461 0.0662-0.15435 0.12127-0.27563 0.16537-0.36383 0.35281-0.59535 0.66151-1.1025 0.92612-1.5215 0.28665-0.441 0.56228-0.85996 0.82689-1.2569 0.2646-0.3969 0.52921-0.7938 0.79382-1.1907 0.28664-0.3969 0.6174-0.85996 0.99227-1.3892 1.5876-2.0948 3.1752-4.1786 4.7629-6.2513 1.6097-2.0727 3.2965-4.0903 5.0606-6.0528 0.61739-0.70559 1.2348-1.3892 1.8522-2.0507 0.61739-0.66149 1.301-1.2899 2.0507-1.8853 0.0661-0.0441 0.15433-0.11022 0.2646-0.19845 0.11023-0.0882 0.22049-0.16535 0.33076-0.23153 0.13228-0.0882 0.25356-0.1433 0.36383-0.16538 0.13228-0.0441 0.25356-0.0441 0.36383 0 0.0882 0.0882 0.12125 0.19848 0.0992 0.33076-2e-5 0.11028-0.0331 0.23155-0.0992 0.36383-0.0442 0.13233-0.0993 0.26463-0.16537 0.39691-0.0662 0.11028-0.11028 0.19848-0.13231 0.2646-0.44103 0.79384-0.92614 1.5656-1.4553 2.3153-0.52923 0.72769-1.1136 1.5105-1.753 2.3484-1.6538 2.0507-3.3627 4.0573-5.1267 6.0198-1.742 1.9404-3.473 3.9029-5.1929 5.8875-0.74973 0.77177-1.4664 1.5435-2.1499 2.3153-0.68357 0.77177-1.4112 1.5435-2.183 2.3153-0.0882 0.0882-0.18744 0.16539-0.29768 0.23153-0.11026 0.0662-0.19847 0.0772-0.26461 0.0331" fill="#666"/>
<path d="m158.81 190.28c1.1907 0.5954 2.1278 1.4002 2.8114 2.4145 0.68352 1.0144 0.92608 2.2492 0.72766 3.7045-0.17645 0.97024-0.54028 1.9735-1.0915 3.0099-0.52925 1.0364-1.1687 2.0507-1.9184 3.043-0.72771 0.99229-1.5215 1.9515-2.3814 2.8776-0.83795 0.90408-1.6318 1.731-2.3814 2.4807-2.8225 2.6681-5.8985 5.0055-9.2281 7.012-3.3296 2.0066-6.8246 3.7045-10.485 5.0936-2.2271 0.81587-4.4211 1.4774-6.582 1.9845-2.1389 0.50716-4.1014 0.89304-5.8875 1.1576-1.7861 0.2646-3.3076 0.44101-4.5644 0.52921-1.2569 0.0882-2.0948 0.12127-2.5138 0.0992-0.0221 0-0.0882-0.011-0.19846-0.0331-0.11025-0.0221-0.23153-0.0551-0.36383-0.0992-0.1323-0.0221-0.24255-0.0551-0.33076-0.0992-0.11024-0.0221-0.16537-0.0552-0.16537-0.0992-0.0221-0.0221 0.1323-0.0661 0.46306-0.1323 0.30871-0.0441 0.66151-0.0992 1.0584-0.16538 0.37486-0.0661 0.73869-0.12128 1.0915-0.16538 0.35281-0.0441 0.55127-0.0661 0.59537-0.0661 2.5358-0.46306 5.2149-1.1025 8.0374-1.9184 2.8445-0.79381 5.667-1.7751 8.4674-2.9437 2.8224-1.1466 5.5346-2.4586 8.1366-3.936 2.624-1.4994 4.9944-3.1642 7.1113-4.9944 1.2348-1.0364 2.4476-2.0948 3.6383-3.1753 1.1907-1.0805 2.2932-2.1389 3.3076-3.1753 1.0143-1.0584 1.9183-2.0727 2.7122-3.043 0.79377-0.99224 1.4002-1.9184 1.8192-2.7784 0.41892-0.85994 0.54611-1.6427 0.54616-2.3484-5e-5 -0.72764-0.27567-1.345-0.8269-1.8522-0.66155-0.55123-1.5054-0.94814-2.6961-1.1907-1.1908-0.26458-2.5248-0.41892-4.0022-0.46305-1.4554-0.0662-2.9989-0.0331-4.6306 0.0992-1.6318 0.11029-3.2084 0.25361-4.7298 0.42999-1.5215 0.17643-2.9327 0.37488-4.2337 0.59536-1.2789 0.19848-2.3263 0.36386-3.1422 0.49613-1.8302 0.30874-3.5832 0.65052-5.259 1.0254-1.6758 0.35283-3.4178 0.68359-5.226 0.99227-0.0441 2e-5 -0.0992 2e-5 -0.16538 0-0.0441 2e-5 -0.0551-0.022-0.0331-0.0661 0.0221-0.0441 0.11024-0.11023 0.2646-0.19846 1.6317-0.63943 3.1532-1.2127 4.5644-1.7199 1.4333-0.50713 2.9658-0.98122 4.5975-1.4222 5.0716-1.4333 10.22-2.183 15.446-2.2492 1.2568 3e-5 2.5468 0.0772 3.8698 0.23153 1.323 0.13234 2.5799 0.48514 3.7706 1.0584m-33.01 25.104c-0.0662-0.0441-0.0772-0.1323-0.0331-0.26461 0.0662-0.15435 0.12127-0.27563 0.16537-0.36383 0.35281-0.59535 0.66151-1.1025 0.92612-1.5215 0.28665-0.441 0.56228-0.85996 0.82689-1.2569 0.2646-0.3969 0.52921-0.7938 0.79382-1.1907 0.28664-0.3969 0.6174-0.85996 0.99227-1.3892 1.5876-2.0948 3.1752-4.1786 4.7629-6.2513 1.6097-2.0727 3.2965-4.0903 5.0606-6.0528 0.61739-0.70559 1.2348-1.3892 1.8522-2.0507 0.61739-0.66149 1.301-1.2899 2.0507-1.8853 0.0661-0.0441 0.15433-0.11022 0.2646-0.19845 0.11023-0.0882 0.22049-0.16535 0.33076-0.23153 0.13228-0.0882 0.25356-0.1433 0.36383-0.16538 0.13228-0.0441 0.25356-0.0441 0.36383 0 0.0882 0.0882 0.12125 0.19848 0.0992 0.33076-2e-5 0.11028-0.0331 0.23155-0.0992 0.36383-0.0442 0.13233-0.0993 0.26463-0.16537 0.39691-0.0662 0.11028-0.11028 0.19848-0.13231 0.2646-0.44103 0.79384-0.92614 1.5656-1.4553 2.3153-0.52923 0.72769-1.1136 1.5105-1.753 2.3484-1.6538 2.0507-3.3627 4.0573-5.1267 6.0198-1.742 1.9404-3.473 3.9029-5.1929 5.8875-0.74973 0.77177-1.4664 1.5435-2.1499 2.3153-0.68357 0.77177-1.4112 1.5435-2.183 2.3153-0.0882 0.0882-0.18744 0.16539-0.29768 0.23153-0.11026 0.0662-0.19847 0.0772-0.26461 0.0331" fill="#666"/>
<path d="m158.21 188.98c1.1907 0.5954 2.1278 1.4002 2.8114 2.4145 0.68352 1.0144 0.92608 2.2492 0.72766 3.7045-0.17645 0.97024-0.54028 1.9735-1.0915 3.0099-0.52925 1.0364-1.1687 2.0507-1.9184 3.043-0.72771 0.99229-1.5215 1.9515-2.3814 2.8776-0.83795 0.90408-1.6318 1.731-2.3814 2.4807-2.8225 2.6681-5.8985 5.0055-9.2281 7.012-3.3296 2.0066-6.8246 3.7045-10.485 5.0936-2.2271 0.81587-4.4211 1.4774-6.582 1.9845-2.1389 0.50716-4.1014 0.89304-5.8875 1.1576-1.7861 0.2646-3.3076 0.44101-4.5644 0.52921-1.2569 0.0882-2.0948 0.12127-2.5138 0.0992-0.0221 0-0.0882-0.011-0.19846-0.0331-0.11025-0.0221-0.23153-0.0551-0.36383-0.0992-0.1323-0.0221-0.24255-0.0551-0.33076-0.0992-0.11024-0.0221-0.16537-0.0552-0.16537-0.0992-0.0221-0.0221 0.1323-0.0661 0.46306-0.1323 0.30871-0.0441 0.66151-0.0992 1.0584-0.16538 0.37486-0.0661 0.73869-0.12128 1.0915-0.16538 0.35281-0.0441 0.55127-0.0661 0.59537-0.0661 2.5358-0.46306 5.2149-1.1025 8.0374-1.9184 2.8445-0.79381 5.667-1.7751 8.4674-2.9437 2.8224-1.1466 5.5346-2.4586 8.1366-3.936 2.624-1.4994 4.9944-3.1642 7.1113-4.9944 1.2348-1.0364 2.4476-2.0948 3.6383-3.1753 1.1907-1.0805 2.2932-2.1389 3.3076-3.1753 1.0143-1.0584 1.9183-2.0727 2.7122-3.043 0.79377-0.99224 1.4002-1.9184 1.8192-2.7784 0.41892-0.85994 0.54611-1.6427 0.54616-2.3484-5e-5 -0.72764-0.27567-1.345-0.8269-1.8522-0.66155-0.55123-1.5054-0.94814-2.6961-1.1907-1.1908-0.26458-2.5248-0.41892-4.0022-0.46305-1.4554-0.0662-2.9989-0.0331-4.6306 0.0992-1.6318 0.11029-3.2084 0.25361-4.7298 0.42999-1.5215 0.17643-2.9327 0.37488-4.2337 0.59536-1.2789 0.19848-2.3263 0.36386-3.1422 0.49613-1.8302 0.30874-3.5832 0.65052-5.259 1.0254-1.6758 0.35283-3.4178 0.68359-5.226 0.99227-0.0441 2e-5 -0.0992 2e-5 -0.16538 0-0.0441 2e-5 -0.0551-0.022-0.0331-0.0661 0.0221-0.0441 0.11024-0.11023 0.2646-0.19846 1.6317-0.63943 3.1532-1.2127 4.5644-1.7199 1.4333-0.50713 2.9658-0.98122 4.5975-1.4222 5.0716-1.4333 10.22-2.183 15.446-2.2492 1.2568 3e-5 2.5468 0.0772 3.8698 0.23153 1.323 0.13234 2.5799 0.48514 3.7706 1.0584m-33.01 25.104c-0.0662-0.0441-0.0772-0.1323-0.0331-0.26461 0.0662-0.15435 0.12127-0.27563 0.16537-0.36383 0.35281-0.59535 0.66151-1.1025 0.92612-1.5215 0.28665-0.441 0.56228-0.85996 0.82689-1.2569 0.2646-0.3969 0.52921-0.7938 0.79382-1.1907 0.28664-0.3969 0.6174-0.85996 0.99227-1.3892 1.5876-2.0948 3.1752-4.1786 4.7629-6.2513 1.6097-2.0727 3.2965-4.0903 5.0606-6.0528 0.61739-0.70559 1.2348-1.3892 1.8522-2.0507 0.61739-0.66149 1.301-1.2899 2.0507-1.8853 0.0661-0.0441 0.15433-0.11022 0.2646-0.19845 0.11023-0.0882 0.22049-0.16535 0.33076-0.23153 0.13228-0.0882 0.25356-0.1433 0.36383-0.16538 0.13228-0.0441 0.25356-0.0441 0.36383 0 0.0882 0.0882 0.12125 0.19848 0.0992 0.33076-2e-5 0.11028-0.0331 0.23155-0.0992 0.36383-0.0442 0.13233-0.0993 0.26463-0.16537 0.39691-0.0662 0.11028-0.11028 0.19848-0.13231 0.2646-0.44103 0.79384-0.92614 1.5656-1.4553 2.3153-0.52923 0.72769-1.1136 1.5105-1.753 2.3484-1.6538 2.0507-3.3627 4.0573-5.1267 6.0198-1.742 1.9404-3.473 3.9029-5.1929 5.8875-0.74973 0.77177-1.4664 1.5435-2.1499 2.3153-0.68357 0.77177-1.4112 1.5435-2.183 2.3153-0.0882 0.0882-0.18744 0.16539-0.29768 0.23153-0.11026 0.0662-0.19847 0.0772-0.26461 0.0331" fill="#f9f9f9"/>
<path d="m158.21 188.98c1.1907 0.5954 2.1278 1.4002 2.8114 2.4145 0.68352 1.0144 0.92608 2.2492 0.72766 3.7045-0.17645 0.97024-0.54028 1.9735-1.0915 3.0099-0.52925 1.0364-1.1687 2.0507-1.9184 3.043-0.72771 0.99229-1.5215 1.9515-2.3814 2.8776-0.83795 0.90408-1.6318 1.731-2.3814 2.4807-2.8225 2.6681-5.8985 5.0055-9.2281 7.012-3.3296 2.0066-6.8246 3.7045-10.485 5.0936-2.2271 0.81587-4.4211 1.4774-6.582 1.9845-2.1389 0.50716-4.1014 0.89304-5.8875 1.1576-1.7861 0.2646-3.3076 0.44101-4.5644 0.52921-1.2569 0.0882-2.0948 0.12127-2.5138 0.0992-0.0221 0-0.0882-0.011-0.19846-0.0331-0.11025-0.0221-0.23153-0.0551-0.36383-0.0992-0.1323-0.0221-0.24255-0.0551-0.33076-0.0992-0.11024-0.0221-0.16537-0.0552-0.16537-0.0992-0.0221-0.0221 0.1323-0.0661 0.46306-0.1323 0.30871-0.0441 0.66151-0.0992 1.0584-0.16538 0.37486-0.0661 0.73869-0.12128 1.0915-0.16538 0.35281-0.0441 0.55127-0.0661 0.59537-0.0661 2.5358-0.46306 5.2149-1.1025 8.0374-1.9184 2.8445-0.79381 5.667-1.7751 8.4674-2.9437 2.8224-1.1466 5.5346-2.4586 8.1366-3.936 2.624-1.4994 4.9944-3.1642 7.1113-4.9944 1.2348-1.0364 2.4476-2.0948 3.6383-3.1753 1.1907-1.0805 2.2932-2.1389 3.3076-3.1753 1.0143-1.0584 1.9183-2.0727 2.7122-3.043 0.79377-0.99224 1.4002-1.9184 1.8192-2.7784 0.41892-0.85994 0.54611-1.6427 0.54616-2.3484-5e-5 -0.72764-0.27567-1.345-0.8269-1.8522-0.66155-0.55123-1.5054-0.94814-2.6961-1.1907-1.1908-0.26458-2.5248-0.41892-4.0022-0.46305-1.4554-0.0662-2.9989-0.0331-4.6306 0.0992-1.6318 0.11029-3.2084 0.25361-4.7298 0.42999-1.5215 0.17643-2.9327 0.37488-4.2337 0.59536-1.2789 0.19848-2.3263 0.36386-3.1422 0.49613-1.8302 0.30874-3.5832 0.65052-5.259 1.0254-1.6758 0.35283-3.4178 0.68359-5.226 0.99227-0.0441 2e-5 -0.0992 2e-5 -0.16538 0-0.0441 2e-5 -0.0551-0.022-0.0331-0.0661 0.0221-0.0441 0.11024-0.11023 0.2646-0.19846 1.6317-0.63943 3.1532-1.2127 4.5644-1.7199 1.4333-0.50713 2.9658-0.98122 4.5975-1.4222 5.0716-1.4333 10.22-2.183 15.446-2.2492 1.2568 3e-5 2.5468 0.0772 3.8698 0.23153 1.323 0.13234 2.5799 0.48514 3.7706 1.0584m-33.01 25.104c-0.0662-0.0441-0.0772-0.1323-0.0331-0.26461 0.0662-0.15435 0.12127-0.27563 0.16537-0.36383 0.35281-0.59535 0.66151-1.1025 0.92612-1.5215 0.28665-0.441 0.56228-0.85996 0.82689-1.2569 0.2646-0.3969 0.52921-0.7938 0.79382-1.1907 0.28664-0.3969 0.6174-0.85996 0.99227-1.3892 1.5876-2.0948 3.1752-4.1786 4.7629-6.2513 1.6097-2.0727 3.2965-4.0903 5.0606-6.0528 0.61739-0.70559 1.2348-1.3892 1.8522-2.0507 0.61739-0.66149 1.301-1.2899 2.0507-1.8853 0.0661-0.0441 0.15433-0.11022 0.2646-0.19845 0.11023-0.0882 0.22049-0.16535 0.33076-0.23153 0.13228-0.0882 0.25356-0.1433 0.36383-0.16538 0.13228-0.0441 0.25356-0.0441 0.36383 0 0.0882 0.0882 0.12125 0.19848 0.0992 0.33076-2e-5 0.11028-0.0331 0.23155-0.0992 0.36383-0.0442 0.13233-0.0993 0.26463-0.16537 0.39691-0.0662 0.11028-0.11028 0.19848-0.13231 0.2646-0.44103 0.79384-0.92614 1.5656-1.4553 2.3153-0.52923 0.72769-1.1136 1.5105-1.753 2.3484-1.6538 2.0507-3.3627 4.0573-5.1267 6.0198-1.742 1.9404-3.473 3.9029-5.1929 5.8875-0.74973 0.77177-1.4664 1.5435-2.1499 2.3153-0.68357 0.77177-1.4112 1.5435-2.183 2.3153-0.0882 0.0882-0.18744 0.16539-0.29768 0.23153-0.11026 0.0662-0.19847 0.0772-0.26461 0.0331" fill="#f9f9f9"/>
</g>
<g transform="matrix(1.8969 0 0 1.8969 -128.49 -115.74)">
<path d="m184.1 144.47c0.0882 1.301-0.0551 2.6571-0.42998 4.0683-0.3749 1.4112-0.89308 2.8004-1.5546 4.1675-0.6395 1.3671-1.3672 2.6791-2.183 3.936-0.8159 1.2569-1.6097 2.3925-2.3814 3.4068-0.88205 1.1907-1.8192 2.3153-2.8114 3.3737-0.97025 1.0584-1.9846 2.0838-3.043 3.076-0.90409 0.85997-1.8743 1.7199-2.9107 2.5799-1.0364 0.88202-2.1279 1.6869-3.2745 2.4145-1.1246 0.72767-2.2933 1.3561-3.506 1.8853-1.1907 0.52921-2.4035 0.89304-3.6383 1.0915-0.77178 0.13231-1.5435 0.13231-2.3153 0-0.74972-0.11025-1.4443-0.40794-2.0838-0.89304-0.52921-0.46306-0.92612-1.0033-1.1907-1.6207-0.24256-0.59536-0.39692-1.2348-0.46306-1.9184-0.0661-0.68356-0.0661-1.3782 0-2.0838 0.0882-0.70561 0.20948-1.3892 0.36383-2.0507 0.35281-1.4553 0.83792-2.8666 1.4553-4.2337 0.61741-1.3892 1.312-2.7122 2.0838-3.9691 0.79381-1.2568 1.6538-2.4586 2.5799-3.6052 0.9261-1.1466 1.9184-2.205 2.9768-3.1753 0.9261-0.94814 1.8853-1.8191 2.8776-2.613 1.0143-0.79379 2.0838-1.4994 3.2083-2.1168 0.52919-0.24252 1.0804-0.48508 1.6538-0.72766 0.59534-0.24253 1.1907-0.41893 1.7861-0.52921 0.11022-0.022 0.23151-0.0331 0.36383-0.0331 0.13228-0.022 0.24253-0.011 0.33076 0.0331 0.0882 0.0442 0.0551 0.11028-0.0992 0.19845-0.13233 0.0662-0.2095 0.12131-0.23153 0.16538-0.24257 0.13233-0.4741 0.25361-0.69459 0.36383-0.19848 0.11028-0.41898 0.23156-0.66151 0.36384-1.0805 0.63948-2.1169 1.3672-3.1091 2.183-0.99229 0.81589-1.9405 1.6979-2.8445 2.646-0.99228 0.99229-1.9405 2.0507-2.8445 3.1753-0.88203 1.1025-1.7089 2.2602-2.4807 3.4729-0.83793 1.1907-1.6207 2.4366-2.3484 3.7376-0.72767 1.301-1.3671 2.6791-1.9184 4.1345-0.22051 0.57331-0.42999 1.2238-0.62844 1.9515-0.17641 0.72767-0.26461 1.4443-0.2646 2.1499 0.0221 0.70561 0.17639 1.3451 0.46306 1.9184 0.28665 0.57331 0.7938 0.97021 1.5215 1.1907 0.7056 0.24255 1.4222 0.28665 2.1499 0.1323 0.7497-0.15435 1.4553-0.37485 2.1168-0.66151 1.1687-0.50716 2.2602-1.1356 3.2745-1.8853 1.0364-0.72767 2.0396-1.5215 3.0099-2.3814 1.4112-1.1907 2.8776-2.5358 4.3991-4.0352 1.5435-1.5215 3.0319-3.1422 4.4652-4.8621 1.4553-1.7199 2.7783-3.517 3.9691-5.3913 1.2127-1.8963 2.194-3.8257 2.9437-5.7882 0.19842-0.48509 0.3638-1.0143 0.49614-1.5876 0.15431-0.57328 0.23149-1.1356 0.23153-1.6869 0.022-0.57328-0.13748-1.1135-0.31386-1.6207-0.17644-0.52918-0.47412-0.99224-0.89304-1.3892-0.5513-0.48508-1.0754-0.80481-1.7368-0.95919-0.66154-0.17638-1.3341-0.25355-2.0176-0.23153-0.68359 0.0442-1.3672 0.14335-2.0507 0.29768-0.66154 0.15438-1.312 0.35283-1.9515 0.59536-1.2569 0.37489-2.4807 0.83795-3.6714 1.3892-1.1687 0.55129-2.3153 1.1797-3.4399 1.8853-1.1026 0.70564-2.1279 1.4664-3.076 2.2822-0.92614 0.81589-1.8743 1.6648-2.8445 2.5468-0.0661 0.0442-0.14334 0.0993-0.23153 0.16537-0.0662 0.0442-0.13232 0.0772-0.19845 0.0992-0.0882 0.0221-0.11027-0.022-0.0661-0.1323 0.0661-0.11023 0.0992-0.17639 0.0992-0.19846 0.44099-0.83789 0.98123-1.6317 1.6207-2.3814 0.63945-0.7497 1.2899-1.4443 1.9515-2.0838 0.99225-0.97019 2.0507-1.8191 3.1753-2.5468 1.1466-0.74968 2.3484-1.3891 3.6052-1.9184 1.2568-0.50714 2.5578-0.87096 3.9029-1.0915 1.345-0.24252 2.6791-0.26457 4.0022-0.0661 0.63943 0.11028 1.2789 0.27566 1.9184 0.49613 0.63942 0.22053 1.2127 0.58437 1.7199 1.0915 0.50713 0.48514 0.89301 1.0584 1.1576 1.7199 0.28662 0.66154 0.46302 1.3561 0.52921 2.0838" fill="#666"/>
<path d="m184.1 144.47c0.0882 1.301-0.0551 2.6571-0.42998 4.0683-0.3749 1.4112-0.89308 2.8004-1.5546 4.1675-0.6395 1.3671-1.3672 2.6791-2.183 3.936-0.8159 1.2569-1.6097 2.3925-2.3814 3.4068-0.88205 1.1907-1.8192 2.3153-2.8114 3.3737-0.97025 1.0584-1.9846 2.0838-3.043 3.076-0.90409 0.85997-1.8743 1.7199-2.9107 2.5799-1.0364 0.88202-2.1279 1.6869-3.2745 2.4145-1.1246 0.72767-2.2933 1.3561-3.506 1.8853-1.1907 0.52921-2.4035 0.89304-3.6383 1.0915-0.77178 0.13231-1.5435 0.13231-2.3153 0-0.74972-0.11025-1.4443-0.40794-2.0838-0.89304-0.52921-0.46306-0.92612-1.0033-1.1907-1.6207-0.24256-0.59536-0.39692-1.2348-0.46306-1.9184-0.0661-0.68356-0.0661-1.3782 0-2.0838 0.0882-0.70561 0.20948-1.3892 0.36383-2.0507 0.35281-1.4553 0.83792-2.8666 1.4553-4.2337 0.61741-1.3892 1.312-2.7122 2.0838-3.9691 0.79381-1.2568 1.6538-2.4586 2.5799-3.6052 0.9261-1.1466 1.9184-2.205 2.9768-3.1753 0.9261-0.94814 1.8853-1.8191 2.8776-2.613 1.0143-0.79379 2.0838-1.4994 3.2083-2.1168 0.52919-0.24252 1.0804-0.48508 1.6538-0.72766 0.59534-0.24253 1.1907-0.41893 1.7861-0.52921 0.11022-0.022 0.23151-0.0331 0.36383-0.0331 0.13228-0.022 0.24253-0.011 0.33076 0.0331 0.0882 0.0442 0.0551 0.11028-0.0992 0.19845-0.13233 0.0662-0.2095 0.12131-0.23153 0.16538-0.24257 0.13233-0.4741 0.25361-0.69459 0.36383-0.19848 0.11028-0.41898 0.23156-0.66151 0.36384-1.0805 0.63948-2.1169 1.3672-3.1091 2.183-0.99229 0.81589-1.9405 1.6979-2.8445 2.646-0.99228 0.99229-1.9405 2.0507-2.8445 3.1753-0.88203 1.1025-1.7089 2.2602-2.4807 3.4729-0.83793 1.1907-1.6207 2.4366-2.3484 3.7376-0.72767 1.301-1.3671 2.6791-1.9184 4.1345-0.22051 0.57331-0.42999 1.2238-0.62844 1.9515-0.17641 0.72767-0.26461 1.4443-0.2646 2.1499 0.0221 0.70561 0.17639 1.3451 0.46306 1.9184 0.28665 0.57331 0.7938 0.97021 1.5215 1.1907 0.7056 0.24255 1.4222 0.28665 2.1499 0.1323 0.7497-0.15435 1.4553-0.37485 2.1168-0.66151 1.1687-0.50716 2.2602-1.1356 3.2745-1.8853 1.0364-0.72767 2.0396-1.5215 3.0099-2.3814 1.4112-1.1907 2.8776-2.5358 4.3991-4.0352 1.5435-1.5215 3.0319-3.1422 4.4652-4.8621 1.4553-1.7199 2.7783-3.517 3.9691-5.3913 1.2127-1.8963 2.194-3.8257 2.9437-5.7882 0.19842-0.48509 0.3638-1.0143 0.49614-1.5876 0.15431-0.57328 0.23149-1.1356 0.23153-1.6869 0.022-0.57328-0.13748-1.1135-0.31386-1.6207-0.17644-0.52918-0.47412-0.99224-0.89304-1.3892-0.5513-0.48508-1.0754-0.80481-1.7368-0.95919-0.66154-0.17638-1.3341-0.25355-2.0176-0.23153-0.68359 0.0442-1.3672 0.14335-2.0507 0.29768-0.66154 0.15438-1.312 0.35283-1.9515 0.59536-1.2569 0.37489-2.4807 0.83795-3.6714 1.3892-1.1687 0.55129-2.3153 1.1797-3.4399 1.8853-1.1026 0.70564-2.1279 1.4664-3.076 2.2822-0.92614 0.81589-1.8743 1.6648-2.8445 2.5468-0.0661 0.0442-0.14334 0.0993-0.23153 0.16537-0.0662 0.0442-0.13232 0.0772-0.19845 0.0992-0.0882 0.0221-0.11027-0.022-0.0661-0.1323 0.0661-0.11023 0.0992-0.17639 0.0992-0.19846 0.44099-0.83789 0.98123-1.6317 1.6207-2.3814 0.63945-0.7497 1.2899-1.4443 1.9515-2.0838 0.99225-0.97019 2.0507-1.8191 3.1753-2.5468 1.1466-0.74968 2.3484-1.3891 3.6052-1.9184 1.2568-0.50714 2.5578-0.87096 3.9029-1.0915 1.345-0.24252 2.6791-0.26457 4.0022-0.0661 0.63943 0.11028 1.2789 0.27566 1.9184 0.49613 0.63942 0.22053 1.2127 0.58437 1.7199 1.0915 0.50713 0.48514 0.89301 1.0584 1.1576 1.7199 0.28662 0.66154 0.46302 1.3561 0.52921 2.0838" fill="#666"/>
<path d="m183.5 143.17c0.0882 1.301-0.0551 2.6571-0.42998 4.0683-0.3749 1.4112-0.89308 2.8004-1.5546 4.1675-0.6395 1.3671-1.3672 2.6791-2.183 3.936-0.8159 1.2569-1.6097 2.3925-2.3814 3.4068-0.88205 1.1907-1.8192 2.3153-2.8114 3.3737-0.97025 1.0584-1.9846 2.0838-3.043 3.076-0.90409 0.85997-1.8743 1.7199-2.9107 2.5799-1.0364 0.88202-2.1279 1.6869-3.2745 2.4145-1.1246 0.72767-2.2933 1.3561-3.506 1.8853-1.1907 0.52921-2.4035 0.89304-3.6383 1.0915-0.77178 0.13231-1.5435 0.13231-2.3153 0-0.74972-0.11025-1.4443-0.40794-2.0838-0.89304-0.52921-0.46306-0.92612-1.0033-1.1907-1.6207-0.24256-0.59536-0.39692-1.2348-0.46306-1.9184-0.0661-0.68356-0.0661-1.3782 0-2.0838 0.0882-0.70561 0.20948-1.3892 0.36383-2.0507 0.35281-1.4553 0.83792-2.8666 1.4553-4.2337 0.61741-1.3892 1.312-2.7122 2.0838-3.9691 0.79381-1.2568 1.6538-2.4586 2.5799-3.6052 0.9261-1.1466 1.9184-2.205 2.9768-3.1753 0.9261-0.94814 1.8853-1.8191 2.8776-2.613 1.0143-0.79379 2.0838-1.4994 3.2083-2.1168 0.52919-0.24252 1.0804-0.48508 1.6538-0.72766 0.59534-0.24253 1.1907-0.41893 1.7861-0.52921 0.11022-0.022 0.23151-0.0331 0.36383-0.0331 0.13228-0.022 0.24253-0.011 0.33076 0.0331 0.0882 0.0442 0.0551 0.11028-0.0992 0.19845-0.13233 0.0662-0.2095 0.12131-0.23153 0.16538-0.24257 0.13233-0.4741 0.25361-0.69459 0.36383-0.19848 0.11028-0.41898 0.23156-0.66151 0.36384-1.0805 0.63948-2.1169 1.3672-3.1091 2.183-0.99229 0.81589-1.9405 1.6979-2.8445 2.646-0.99228 0.99229-1.9405 2.0507-2.8445 3.1753-0.88203 1.1025-1.7089 2.2602-2.4807 3.4729-0.83793 1.1907-1.6207 2.4366-2.3484 3.7376-0.72767 1.301-1.3671 2.6791-1.9184 4.1345-0.22051 0.57331-0.42999 1.2238-0.62844 1.9515-0.17641 0.72767-0.26461 1.4443-0.2646 2.1499 0.0221 0.70561 0.17639 1.3451 0.46306 1.9184 0.28665 0.57331 0.7938 0.97021 1.5215 1.1907 0.7056 0.24255 1.4222 0.28665 2.1499 0.1323 0.7497-0.15435 1.4553-0.37485 2.1168-0.66151 1.1687-0.50716 2.2602-1.1356 3.2745-1.8853 1.0364-0.72767 2.0396-1.5215 3.0099-2.3814 1.4112-1.1907 2.8776-2.5358 4.3991-4.0352 1.5435-1.5215 3.0319-3.1422 4.4652-4.8621 1.4553-1.7199 2.7783-3.517 3.9691-5.3913 1.2127-1.8963 2.194-3.8257 2.9437-5.7882 0.19842-0.48509 0.3638-1.0143 0.49614-1.5876 0.15431-0.57328 0.23149-1.1356 0.23153-1.6869 0.022-0.57328-0.13748-1.1135-0.31386-1.6207-0.17644-0.52918-0.47412-0.99224-0.89304-1.3892-0.5513-0.48508-1.0754-0.80481-1.7368-0.95919-0.66154-0.17638-1.3341-0.25355-2.0176-0.23153-0.68359 0.0442-1.3672 0.14335-2.0507 0.29768-0.66154 0.15438-1.312 0.35283-1.9515 0.59536-1.2569 0.37489-2.4807 0.83795-3.6714 1.3892-1.1687 0.55129-2.3153 1.1797-3.4399 1.8853-1.1026 0.70564-2.1279 1.4664-3.076 2.2822-0.92614 0.81589-1.8743 1.6648-2.8445 2.5468-0.0661 0.0442-0.14334 0.0993-0.23153 0.16537-0.0662 0.0442-0.13232 0.0772-0.19845 0.0992-0.0882 0.0221-0.11027-0.022-0.0661-0.1323 0.0661-0.11023 0.0992-0.17639 0.0992-0.19846 0.44099-0.83789 0.98123-1.6317 1.6207-2.3814 0.63945-0.7497 1.2899-1.4443 1.9515-2.0838 0.99225-0.97019 2.0507-1.8191 3.1753-2.5468 1.1466-0.74968 2.3484-1.3891 3.6052-1.9184 1.2568-0.50714 2.5578-0.87096 3.9029-1.0915 1.345-0.24252 2.6791-0.26457 4.0022-0.0661 0.63943 0.11028 1.2789 0.27566 1.9184 0.49613 0.63942 0.22053 1.2127 0.58437 1.7199 1.0915 0.50713 0.48514 0.89301 1.0584 1.1576 1.7199 0.28662 0.66154 0.46302 1.3561 0.52921 2.0838" fill="#f9f9f9"/>
<path d="m183.5 143.17c0.0882 1.301-0.0551 2.6571-0.42998 4.0683-0.3749 1.4112-0.89308 2.8004-1.5546 4.1675-0.6395 1.3671-1.3672 2.6791-2.183 3.936-0.8159 1.2569-1.6097 2.3925-2.3814 3.4068-0.88205 1.1907-1.8192 2.3153-2.8114 3.3737-0.97025 1.0584-1.9846 2.0838-3.043 3.076-0.90409 0.85997-1.8743 1.7199-2.9107 2.5799-1.0364 0.88202-2.1279 1.6869-3.2745 2.4145-1.1246 0.72767-2.2933 1.3561-3.506 1.8853-1.1907 0.52921-2.4035 0.89304-3.6383 1.0915-0.77178 0.13231-1.5435 0.13231-2.3153 0-0.74972-0.11025-1.4443-0.40794-2.0838-0.89304-0.52921-0.46306-0.92612-1.0033-1.1907-1.6207-0.24256-0.59536-0.39692-1.2348-0.46306-1.9184-0.0661-0.68356-0.0661-1.3782 0-2.0838 0.0882-0.70561 0.20948-1.3892 0.36383-2.0507 0.35281-1.4553 0.83792-2.8666 1.4553-4.2337 0.61741-1.3892 1.312-2.7122 2.0838-3.9691 0.79381-1.2568 1.6538-2.4586 2.5799-3.6052 0.9261-1.1466 1.9184-2.205 2.9768-3.1753 0.9261-0.94814 1.8853-1.8191 2.8776-2.613 1.0143-0.79379 2.0838-1.4994 3.2083-2.1168 0.52919-0.24252 1.0804-0.48508 1.6538-0.72766 0.59534-0.24253 1.1907-0.41893 1.7861-0.52921 0.11022-0.022 0.23151-0.0331 0.36383-0.0331 0.13228-0.022 0.24253-0.011 0.33076 0.0331 0.0882 0.0442 0.0551 0.11028-0.0992 0.19845-0.13233 0.0662-0.2095 0.12131-0.23153 0.16538-0.24257 0.13233-0.4741 0.25361-0.69459 0.36383-0.19848 0.11028-0.41898 0.23156-0.66151 0.36384-1.0805 0.63948-2.1169 1.3672-3.1091 2.183-0.99229 0.81589-1.9405 1.6979-2.8445 2.646-0.99228 0.99229-1.9405 2.0507-2.8445 3.1753-0.88203 1.1025-1.7089 2.2602-2.4807 3.4729-0.83793 1.1907-1.6207 2.4366-2.3484 3.7376-0.72767 1.301-1.3671 2.6791-1.9184 4.1345-0.22051 0.57331-0.42999 1.2238-0.62844 1.9515-0.17641 0.72767-0.26461 1.4443-0.2646 2.1499 0.0221 0.70561 0.17639 1.3451 0.46306 1.9184 0.28665 0.57331 0.7938 0.97021 1.5215 1.1907 0.7056 0.24255 1.4222 0.28665 2.1499 0.1323 0.7497-0.15435 1.4553-0.37485 2.1168-0.66151 1.1687-0.50716 2.2602-1.1356 3.2745-1.8853 1.0364-0.72767 2.0396-1.5215 3.0099-2.3814 1.4112-1.1907 2.8776-2.5358 4.3991-4.0352 1.5435-1.5215 3.0319-3.1422 4.4652-4.8621 1.4553-1.7199 2.7783-3.517 3.9691-5.3913 1.2127-1.8963 2.194-3.8257 2.9437-5.7882 0.19842-0.48509 0.3638-1.0143 0.49614-1.5876 0.15431-0.57328 0.23149-1.1356 0.23153-1.6869 0.022-0.57328-0.13748-1.1135-0.31386-1.6207-0.17644-0.52918-0.47412-0.99224-0.89304-1.3892-0.5513-0.48508-1.0754-0.80481-1.7368-0.95919-0.66154-0.17638-1.3341-0.25355-2.0176-0.23153-0.68359 0.0442-1.3672 0.14335-2.0507 0.29768-0.66154 0.15438-1.312 0.35283-1.9515 0.59536-1.2569 0.37489-2.4807 0.83795-3.6714 1.3892-1.1687 0.55129-2.3153 1.1797-3.4399 1.8853-1.1026 0.70564-2.1279 1.4664-3.076 2.2822-0.92614 0.81589-1.8743 1.6648-2.8445 2.5468-0.0661 0.0442-0.14334 0.0993-0.23153 0.16537-0.0662 0.0442-0.13232 0.0772-0.19845 0.0992-0.0882 0.0221-0.11027-0.022-0.0661-0.1323 0.0661-0.11023 0.0992-0.17639 0.0992-0.19846 0.44099-0.83789 0.98123-1.6317 1.6207-2.3814 0.63945-0.7497 1.2899-1.4443 1.9515-2.0838 0.99225-0.97019 2.0507-1.8191 3.1753-2.5468 1.1466-0.74968 2.3484-1.3891 3.6052-1.9184 1.2568-0.50714 2.5578-0.87096 3.9029-1.0915 1.345-0.24252 2.6791-0.26457 4.0022-0.0661 0.63943 0.11028 1.2789 0.27566 1.9184 0.49613 0.63942 0.22053 1.2127 0.58437 1.7199 1.0915 0.50713 0.48514 0.89301 1.0584 1.1576 1.7199 0.28662 0.66154 0.46302 1.3561 0.52921 2.0838" fill="#f9f9f9"/>
</g>
</g>
</svg>
