<?xml version="1.0" encoding="UTF-8" standalone="no"?>
<!-- Created with Inkscape (http://www.inkscape.org/) -->

<svg
   xmlns:dc="http://purl.org/dc/elements/1.1/"
   xmlns:cc="http://creativecommons.org/ns#"
   xmlns:rdf="http://www.w3.org/1999/02/22-rdf-syntax-ns#"
   xmlns:svg="http://www.w3.org/2000/svg"
   xmlns="http://www.w3.org/2000/svg"
   xmlns:sodipodi="http://sodipodi.sourceforge.net/DTD/sodipodi-0.dtd"
   width="113.65973"
   height="113.66004"
   id="svg2"
   version="1.1">
  <defs
     id="defs4" />
  <sodipodi:namedview
     id="base"
     pagecolor="#ffffff"
     bordercolor="#666666"
     borderopacity="1.0"
     showgrid="false"
     fit-margin-top="0"
     fit-margin-left="0"
     fit-margin-right="0"
     fit-margin-bottom="0" />
  <metadata
     id="metadata7">
    <rdf:RDF>
      <cc:Work
         rdf:about="">
        <dc:format>image/svg+xml</dc:format>
        <dc:type
           rdf:resource="http://purl.org/dc/dcmitype/StillImage" />
        <dc:title />
      </cc:Work>
    </rdf:RDF>
  </metadata>
  <g
     inkscape:label="Capa 1"
     inkscape:groupmode="layer"
     id="layer1"
     transform="translate(-143.27019,-129.05001)">
    <path
       style="font-size:40px;font-style:normal;font-weight:normal;line-height:125%;letter-spacing:0px;word-spacing:0px;opacity:0.91000001;fill:#666666;fill-opacity:1;stroke:#000000;stroke-width:0;stroke-miterlimit:4;stroke-opacity:1;stroke-dashoffset:0;font-family:Sans"
       d="m 200.12846,129.05002 c 57.5407,1.35731 56.81576,0.65828 56.79967,56.85769 -0.009,30.04529 -26.01168,56.79967 -56.8577,56.79967 -56.86905,0 -56.81569,1.35365 -56.79967,-56.85769 0.009,-31.37428 25.45439,-56.79967 56.82867,-56.79968"
       id="path3085"
       inkscape:connector-curvature="0"
       sodipodi:nodetypes="csssc" />
    <g
       id="g3133"
       transform="matrix(1.8968654,0,0,1.8968654,-54.516336,-195.40884)">
      <path
         sodipodi:nodetypes="cccccccsccsscccccccccccccccccccccccccccccccccccccccsccccscccccccccccccscsc"
         inkscape:connector-curvature="0"
         id="path3055"
         style="font-size:40px;font-style:normal;font-variant:normal;font-weight:bold;font-stretch:normal;line-height:125%;letter-spacing:0px;word-spacing:0px;fill:#666666;fill-opacity:1;stroke:none;font-family:Streamster;-inkscape-font-specification:Streamster Bold"
         d="m 158.81099,190.27885 c 1.19068,0.5954 2.12782,1.40023 2.81143,2.41452 0.68352,1.01435 0.92608,2.24917 0.72766,3.70448 -0.17645,0.97024 -0.54028,1.97353 -1.09149,3.00988 -0.52925,1.0364 -1.16871,2.05071 -1.91839,3.04296 -0.72771,0.99229 -1.52152,1.95148 -2.38145,2.87759 -0.83795,0.90408 -1.63177,1.73097 -2.38145,2.48067 -2.82248,2.66811 -5.89852,5.00546 -9.2281,7.01204 -3.32965,2.00659 -6.82464,3.70447 -10.48499,5.09365 -2.22711,0.81587 -4.42112,1.47738 -6.58205,1.98454 -2.13891,0.50716 -4.10139,0.89304 -5.88747,1.15765 -1.78609,0.2646 -3.30757,0.44101 -4.56444,0.52921 -1.25688,0.0882 -2.09479,0.12127 -2.51375,0.0992 -0.0221,0 -0.0882,-0.011 -0.19846,-0.0331 -0.11025,-0.0221 -0.23153,-0.0551 -0.36383,-0.0992 -0.1323,-0.0221 -0.24255,-0.0551 -0.33076,-0.0992 -0.11024,-0.0221 -0.16537,-0.0552 -0.16537,-0.0992 -0.0221,-0.0221 0.1323,-0.0661 0.46306,-0.1323 0.30871,-0.0441 0.66151,-0.0992 1.05842,-0.16538 0.37486,-0.0661 0.73869,-0.12128 1.09149,-0.16538 0.35281,-0.0441 0.55127,-0.0661 0.59537,-0.0661 2.53579,-0.46306 5.21492,-1.10253 8.03738,-1.91839 2.8445,-0.79381 5.66695,-1.77506 8.46737,-2.94373 2.82244,-1.14662 5.53464,-2.45862 8.13661,-3.93601 2.62398,-1.49941 4.9944,-3.16423 7.11127,-4.99442 1.23479,-1.03636 2.44756,-2.09478 3.63832,-3.17526 1.19069,-1.08046 2.29321,-2.13888 3.30757,-3.17527 1.01428,-1.0584 1.91834,-2.07272 2.7122,-3.04296 0.79377,-0.99224 1.40016,-1.91836 1.81916,-2.77835 0.41892,-0.85994 0.54611,-1.64274 0.54616,-2.34837 -5e-5,-0.72764 -0.27567,-1.34505 -0.8269,-1.85224 -0.66155,-0.55123 -1.50539,-0.94814 -2.69607,-1.19073 -1.19076,-0.26458 -2.52481,-0.41892 -4.00215,-0.46305 -1.45536,-0.0662 -2.9989,-0.0331 -4.63059,0.0992 -1.63177,0.11029 -3.20837,0.25361 -4.72982,0.42999 -1.52151,0.17643 -2.93273,0.37488 -4.23369,0.59536 -1.27894,0.19848 -2.32634,0.36386 -3.14219,0.49613 -1.8302,0.30874 -3.58321,0.65052 -5.25903,1.02535 -1.67584,0.35283 -3.41783,0.68359 -5.22595,0.99227 -0.0441,2e-5 -0.0992,2e-5 -0.16538,0 -0.0441,2e-5 -0.0551,-0.022 -0.0331,-0.0661 0.0221,-0.0441 0.11024,-0.11023 0.2646,-0.19846 1.63172,-0.63943 3.1532,-1.21274 4.56444,-1.71993 1.43327,-0.50713 2.96577,-0.98122 4.59752,-1.42225 5.07158,-1.43326 10.22035,-2.18297 15.44633,-2.24915 1.25684,3e-5 2.54679,0.0772 3.86985,0.23153 1.32299,0.13234 2.57986,0.48514 3.77063,1.05842 m -33.00951,25.10443 c -0.0662,-0.0441 -0.0772,-0.1323 -0.0331,-0.26461 0.0662,-0.15435 0.12127,-0.27563 0.16537,-0.36383 0.35281,-0.59535 0.66151,-1.10252 0.92612,-1.52148 0.28665,-0.441 0.56228,-0.85996 0.82689,-1.25688 0.2646,-0.3969 0.52921,-0.7938 0.79382,-1.19072 0.28664,-0.3969 0.6174,-0.85996 0.99227,-1.38918 1.58761,-2.09478 3.17525,-4.17855 4.76289,-6.2513 1.60967,-2.07272 3.29652,-4.09033 5.06058,-6.05284 0.61739,-0.70559 1.23481,-1.38916 1.85224,-2.05069 0.61739,-0.66149 1.30095,-1.28993 2.05069,-1.88532 0.0661,-0.0441 0.15433,-0.11022 0.2646,-0.19845 0.11023,-0.0882 0.22049,-0.16535 0.33076,-0.23153 0.13228,-0.0882 0.25356,-0.1433 0.36383,-0.16538 0.13228,-0.0441 0.25356,-0.0441 0.36383,0 0.0882,0.0882 0.12125,0.19848 0.0992,0.33076 -2e-5,0.11028 -0.0331,0.23155 -0.0992,0.36383 -0.0442,0.13233 -0.0993,0.26463 -0.16537,0.39691 -0.0662,0.11028 -0.11028,0.19848 -0.13231,0.2646 -0.44103,0.79384 -0.92614,1.56561 -1.45533,2.3153 -0.52923,0.72769 -1.11356,1.51047 -1.75301,2.34837 -1.6538,2.05071 -3.36271,4.0573 -5.12672,6.01977 -1.74201,1.94045 -3.47296,3.90294 -5.19288,5.88747 -0.74973,0.77177 -1.46637,1.54354 -2.14992,2.3153 -0.68357,0.77177 -1.41124,1.54353 -2.18299,2.31529 -0.0882,0.0882 -0.18744,0.16539 -0.29768,0.23153 -0.11026,0.0662 -0.19847,0.0772 -0.26461,0.0331" />
      <path
         d="m 158.81099,190.27885 c 1.19068,0.5954 2.12782,1.40023 2.81143,2.41452 0.68352,1.01435 0.92608,2.24917 0.72766,3.70448 -0.17645,0.97024 -0.54028,1.97353 -1.09149,3.00988 -0.52925,1.0364 -1.16871,2.05071 -1.91839,3.04296 -0.72771,0.99229 -1.52152,1.95148 -2.38145,2.87759 -0.83795,0.90408 -1.63177,1.73097 -2.38145,2.48067 -2.82248,2.66811 -5.89852,5.00546 -9.2281,7.01204 -3.32965,2.00659 -6.82464,3.70447 -10.48499,5.09365 -2.22711,0.81587 -4.42112,1.47738 -6.58205,1.98454 -2.13891,0.50716 -4.10139,0.89304 -5.88747,1.15765 -1.78609,0.2646 -3.30757,0.44101 -4.56444,0.52921 -1.25688,0.0882 -2.09479,0.12127 -2.51375,0.0992 -0.0221,0 -0.0882,-0.011 -0.19846,-0.0331 -0.11025,-0.0221 -0.23153,-0.0551 -0.36383,-0.0992 -0.1323,-0.0221 -0.24255,-0.0551 -0.33076,-0.0992 -0.11024,-0.0221 -0.16537,-0.0552 -0.16537,-0.0992 -0.0221,-0.0221 0.1323,-0.0661 0.46306,-0.1323 0.30871,-0.0441 0.66151,-0.0992 1.05842,-0.16538 0.37486,-0.0661 0.73869,-0.12128 1.09149,-0.16538 0.35281,-0.0441 0.55127,-0.0661 0.59537,-0.0661 2.53579,-0.46306 5.21492,-1.10253 8.03738,-1.91839 2.8445,-0.79381 5.66695,-1.77506 8.46737,-2.94373 2.82244,-1.14662 5.53464,-2.45862 8.13661,-3.93601 2.62398,-1.49941 4.9944,-3.16423 7.11127,-4.99442 1.23479,-1.03636 2.44756,-2.09478 3.63832,-3.17526 1.19069,-1.08046 2.29321,-2.13888 3.30757,-3.17527 1.01428,-1.0584 1.91834,-2.07272 2.7122,-3.04296 0.79377,-0.99224 1.40016,-1.91836 1.81916,-2.77835 0.41892,-0.85994 0.54611,-1.64274 0.54616,-2.34837 -5e-5,-0.72764 -0.27567,-1.34505 -0.8269,-1.85224 -0.66155,-0.55123 -1.50539,-0.94814 -2.69607,-1.19073 -1.19076,-0.26458 -2.52481,-0.41892 -4.00215,-0.46305 -1.45536,-0.0662 -2.9989,-0.0331 -4.63059,0.0992 -1.63177,0.11029 -3.20837,0.25361 -4.72982,0.42999 -1.52151,0.17643 -2.93273,0.37488 -4.23369,0.59536 -1.27894,0.19848 -2.32634,0.36386 -3.14219,0.49613 -1.8302,0.30874 -3.58321,0.65052 -5.25903,1.02535 -1.67584,0.35283 -3.41783,0.68359 -5.22595,0.99227 -0.0441,2e-5 -0.0992,2e-5 -0.16538,0 -0.0441,2e-5 -0.0551,-0.022 -0.0331,-0.0661 0.0221,-0.0441 0.11024,-0.11023 0.2646,-0.19846 1.63172,-0.63943 3.1532,-1.21274 4.56444,-1.71993 1.43327,-0.50713 2.96577,-0.98122 4.59752,-1.42225 5.07158,-1.43326 10.22035,-2.18297 15.44633,-2.24915 1.25684,3e-5 2.54679,0.0772 3.86985,0.23153 1.32299,0.13234 2.57986,0.48514 3.77063,1.05842 m -33.00951,25.10443 c -0.0662,-0.0441 -0.0772,-0.1323 -0.0331,-0.26461 0.0662,-0.15435 0.12127,-0.27563 0.16537,-0.36383 0.35281,-0.59535 0.66151,-1.10252 0.92612,-1.52148 0.28665,-0.441 0.56228,-0.85996 0.82689,-1.25688 0.2646,-0.3969 0.52921,-0.7938 0.79382,-1.19072 0.28664,-0.3969 0.6174,-0.85996 0.99227,-1.38918 1.58761,-2.09478 3.17525,-4.17855 4.76289,-6.2513 1.60967,-2.07272 3.29652,-4.09033 5.06058,-6.05284 0.61739,-0.70559 1.23481,-1.38916 1.85224,-2.05069 0.61739,-0.66149 1.30095,-1.28993 2.05069,-1.88532 0.0661,-0.0441 0.15433,-0.11022 0.2646,-0.19845 0.11023,-0.0882 0.22049,-0.16535 0.33076,-0.23153 0.13228,-0.0882 0.25356,-0.1433 0.36383,-0.16538 0.13228,-0.0441 0.25356,-0.0441 0.36383,0 0.0882,0.0882 0.12125,0.19848 0.0992,0.33076 -2e-5,0.11028 -0.0331,0.23155 -0.0992,0.36383 -0.0442,0.13233 -0.0993,0.26463 -0.16537,0.39691 -0.0662,0.11028 -0.11028,0.19848 -0.13231,0.2646 -0.44103,0.79384 -0.92614,1.56561 -1.45533,2.3153 -0.52923,0.72769 -1.11356,1.51047 -1.75301,2.34837 -1.6538,2.05071 -3.36271,4.0573 -5.12672,6.01977 -1.74201,1.94045 -3.47296,3.90294 -5.19288,5.88747 -0.74973,0.77177 -1.46637,1.54354 -2.14992,2.3153 -0.68357,0.77177 -1.41124,1.54353 -2.18299,2.31529 -0.0882,0.0882 -0.18744,0.16539 -0.29768,0.23153 -0.11026,0.0662 -0.19847,0.0772 -0.26461,0.0331"
         style="font-size:40px;font-style:normal;font-variant:normal;font-weight:bold;font-stretch:normal;line-height:125%;letter-spacing:0px;word-spacing:0px;fill:#666666;fill-opacity:1;stroke:none;font-family:Streamster;-inkscape-font-specification:Streamster Bold"
         id="path3069"
         inkscape:connector-curvature="0"
         sodipodi:nodetypes="cccccccsccsscccccccccccccccccccccccccccccccccccccccsccccscccccccccccccscsc" />
      <path
         d="m 158.21099,188.97884 c 1.19068,0.5954 2.12782,1.40023 2.81143,2.41452 0.68352,1.01435 0.92608,2.24917 0.72766,3.70448 -0.17645,0.97024 -0.54028,1.97353 -1.09149,3.00988 -0.52925,1.0364 -1.16871,2.05071 -1.91839,3.04296 -0.72771,0.99229 -1.52152,1.95148 -2.38145,2.87759 -0.83795,0.90408 -1.63177,1.73097 -2.38145,2.48067 -2.82248,2.66811 -5.89852,5.00546 -9.2281,7.01204 -3.32965,2.00659 -6.82464,3.70447 -10.48499,5.09365 -2.22711,0.81587 -4.42112,1.47738 -6.58205,1.98454 -2.13891,0.50716 -4.10139,0.89304 -5.88747,1.15765 -1.78609,0.2646 -3.30757,0.44101 -4.56444,0.52921 -1.25688,0.0882 -2.09479,0.12127 -2.51375,0.0992 -0.0221,0 -0.0882,-0.011 -0.19846,-0.0331 -0.11025,-0.0221 -0.23153,-0.0551 -0.36383,-0.0992 -0.1323,-0.0221 -0.24255,-0.0551 -0.33076,-0.0992 -0.11024,-0.0221 -0.16537,-0.0552 -0.16537,-0.0992 -0.0221,-0.0221 0.1323,-0.0661 0.46306,-0.1323 0.30871,-0.0441 0.66151,-0.0992 1.05842,-0.16538 0.37486,-0.0661 0.73869,-0.12128 1.09149,-0.16538 0.35281,-0.0441 0.55127,-0.0661 0.59537,-0.0661 2.53579,-0.46306 5.21492,-1.10253 8.03738,-1.91839 2.8445,-0.79381 5.66695,-1.77506 8.46737,-2.94373 2.82244,-1.14662 5.53464,-2.45862 8.13661,-3.93601 2.62398,-1.49941 4.9944,-3.16423 7.11127,-4.99442 1.23479,-1.03636 2.44756,-2.09478 3.63832,-3.17526 1.19069,-1.08046 2.29321,-2.13888 3.30757,-3.17527 1.01428,-1.0584 1.91834,-2.07272 2.7122,-3.04296 0.79377,-0.99224 1.40016,-1.91836 1.81916,-2.77835 0.41892,-0.85994 0.54611,-1.64274 0.54616,-2.34837 -5e-5,-0.72764 -0.27567,-1.34505 -0.8269,-1.85224 -0.66155,-0.55123 -1.50539,-0.94814 -2.69607,-1.19073 -1.19076,-0.26458 -2.52481,-0.41892 -4.00215,-0.46305 -1.45536,-0.0662 -2.9989,-0.0331 -4.63059,0.0992 -1.63177,0.11029 -3.20837,0.25361 -4.72982,0.42999 -1.52151,0.17643 -2.93273,0.37488 -4.23369,0.59536 -1.27894,0.19848 -2.32634,0.36386 -3.14219,0.49613 -1.8302,0.30874 -3.58321,0.65052 -5.25903,1.02535 -1.67584,0.35283 -3.41783,0.68359 -5.22595,0.99227 -0.0441,2e-5 -0.0992,2e-5 -0.16538,0 -0.0441,2e-5 -0.0551,-0.022 -0.0331,-0.0661 0.0221,-0.0441 0.11024,-0.11023 0.2646,-0.19846 1.63172,-0.63943 3.1532,-1.21274 4.56444,-1.71993 1.43327,-0.50713 2.96577,-0.98122 4.59752,-1.42225 5.07158,-1.43326 10.22035,-2.18297 15.44633,-2.24915 1.25684,3e-5 2.54679,0.0772 3.86985,0.23153 1.32299,0.13234 2.57986,0.48514 3.77063,1.05842 m -33.00951,25.10443 c -0.0662,-0.0441 -0.0772,-0.1323 -0.0331,-0.26461 0.0662,-0.15435 0.12127,-0.27563 0.16537,-0.36383 0.35281,-0.59535 0.66151,-1.10252 0.92612,-1.52148 0.28665,-0.441 0.56228,-0.85996 0.82689,-1.25688 0.2646,-0.3969 0.52921,-0.7938 0.79382,-1.19072 0.28664,-0.3969 0.6174,-0.85996 0.99227,-1.38918 1.58761,-2.09478 3.17525,-4.17855 4.76289,-6.2513 1.60967,-2.07272 3.29652,-4.09033 5.06058,-6.05284 0.61739,-0.70559 1.23481,-1.38916 1.85224,-2.05069 0.61739,-0.66149 1.30095,-1.28993 2.05069,-1.88532 0.0661,-0.0441 0.15433,-0.11022 0.2646,-0.19845 0.11023,-0.0882 0.22049,-0.16535 0.33076,-0.23153 0.13228,-0.0882 0.25356,-0.1433 0.36383,-0.16538 0.13228,-0.0441 0.25356,-0.0441 0.36383,0 0.0882,0.0882 0.12125,0.19848 0.0992,0.33076 -2e-5,0.11028 -0.0331,0.23155 -0.0992,0.36383 -0.0442,0.13233 -0.0993,0.26463 -0.16537,0.39691 -0.0662,0.11028 -0.11028,0.19848 -0.13231,0.2646 -0.44103,0.79384 -0.92614,1.56561 -1.45533,2.3153 -0.52923,0.72769 -1.11356,1.51047 -1.75301,2.34837 -1.6538,2.05071 -3.36271,4.0573 -5.12672,6.01977 -1.74201,1.94045 -3.47296,3.90294 -5.19288,5.88747 -0.74973,0.77177 -1.46637,1.54354 -2.14992,2.3153 -0.68357,0.77177 -1.41124,1.54353 -2.18299,2.31529 -0.0882,0.0882 -0.18744,0.16539 -0.29768,0.23153 -0.11026,0.0662 -0.19847,0.0772 -0.26461,0.0331"
         style="font-size:40px;font-style:normal;font-variant:normal;font-weight:bold;font-stretch:normal;line-height:125%;letter-spacing:0px;word-spacing:0px;fill:#f9f9f9;fill-opacity:1;stroke:none;font-family:Streamster;-inkscape-font-specification:Streamster Bold"
         id="path2990"
         inkscape:connector-curvature="0"
         sodipodi:nodetypes="cccccccsccsscccccccccccccccccccccccccccccccccccccccsccccscccccccccccccscsc" />
      <path
         sodipodi:nodetypes="cccccccsccsscccccccccccccccccccccccccccccccccccccccsccccscccccccccccccscsc"
         inkscape:connector-curvature="0"
         id="path3009"
         style="font-size:40px;font-style:normal;font-variant:normal;font-weight:bold;font-stretch:normal;line-height:125%;letter-spacing:0px;word-spacing:0px;fill:#f9f9f9;fill-opacity:1;stroke:none;font-family:Streamster;-inkscape-font-specification:Streamster Bold"
         d="m 158.21099,188.97884 c 1.19068,0.5954 2.12782,1.40023 2.81143,2.41452 0.68352,1.01435 0.92608,2.24917 0.72766,3.70448 -0.17645,0.97024 -0.54028,1.97353 -1.09149,3.00988 -0.52925,1.0364 -1.16871,2.05071 -1.91839,3.04296 -0.72771,0.99229 -1.52152,1.95148 -2.38145,2.87759 -0.83795,0.90408 -1.63177,1.73097 -2.38145,2.48067 -2.82248,2.66811 -5.89852,5.00546 -9.2281,7.01204 -3.32965,2.00659 -6.82464,3.70447 -10.48499,5.09365 -2.22711,0.81587 -4.42112,1.47738 -6.58205,1.98454 -2.13891,0.50716 -4.10139,0.89304 -5.88747,1.15765 -1.78609,0.2646 -3.30757,0.44101 -4.56444,0.52921 -1.25688,0.0882 -2.09479,0.12127 -2.51375,0.0992 -0.0221,0 -0.0882,-0.011 -0.19846,-0.0331 -0.11025,-0.0221 -0.23153,-0.0551 -0.36383,-0.0992 -0.1323,-0.0221 -0.24255,-0.0551 -0.33076,-0.0992 -0.11024,-0.0221 -0.16537,-0.0552 -0.16537,-0.0992 -0.0221,-0.0221 0.1323,-0.0661 0.46306,-0.1323 0.30871,-0.0441 0.66151,-0.0992 1.05842,-0.16538 0.37486,-0.0661 0.73869,-0.12128 1.09149,-0.16538 0.35281,-0.0441 0.55127,-0.0661 0.59537,-0.0661 2.53579,-0.46306 5.21492,-1.10253 8.03738,-1.91839 2.8445,-0.79381 5.66695,-1.77506 8.46737,-2.94373 2.82244,-1.14662 5.53464,-2.45862 8.13661,-3.93601 2.62398,-1.49941 4.9944,-3.16423 7.11127,-4.99442 1.23479,-1.03636 2.44756,-2.09478 3.63832,-3.17526 1.19069,-1.08046 2.29321,-2.13888 3.30757,-3.17527 1.01428,-1.0584 1.91834,-2.07272 2.7122,-3.04296 0.79377,-0.99224 1.40016,-1.91836 1.81916,-2.77835 0.41892,-0.85994 0.54611,-1.64274 0.54616,-2.34837 -5e-5,-0.72764 -0.27567,-1.34505 -0.8269,-1.85224 -0.66155,-0.55123 -1.50539,-0.94814 -2.69607,-1.19073 -1.19076,-0.26458 -2.52481,-0.41892 -4.00215,-0.46305 -1.45536,-0.0662 -2.9989,-0.0331 -4.63059,0.0992 -1.63177,0.11029 -3.20837,0.25361 -4.72982,0.42999 -1.52151,0.17643 -2.93273,0.37488 -4.23369,0.59536 -1.27894,0.19848 -2.32634,0.36386 -3.14219,0.49613 -1.8302,0.30874 -3.58321,0.65052 -5.25903,1.02535 -1.67584,0.35283 -3.41783,0.68359 -5.22595,0.99227 -0.0441,2e-5 -0.0992,2e-5 -0.16538,0 -0.0441,2e-5 -0.0551,-0.022 -0.0331,-0.0661 0.0221,-0.0441 0.11024,-0.11023 0.2646,-0.19846 1.63172,-0.63943 3.1532,-1.21274 4.56444,-1.71993 1.43327,-0.50713 2.96577,-0.98122 4.59752,-1.42225 5.07158,-1.43326 10.22035,-2.18297 15.44633,-2.24915 1.25684,3e-5 2.54679,0.0772 3.86985,0.23153 1.32299,0.13234 2.57986,0.48514 3.77063,1.05842 m -33.00951,25.10443 c -0.0662,-0.0441 -0.0772,-0.1323 -0.0331,-0.26461 0.0662,-0.15435 0.12127,-0.27563 0.16537,-0.36383 0.35281,-0.59535 0.66151,-1.10252 0.92612,-1.52148 0.28665,-0.441 0.56228,-0.85996 0.82689,-1.25688 0.2646,-0.3969 0.52921,-0.7938 0.79382,-1.19072 0.28664,-0.3969 0.6174,-0.85996 0.99227,-1.38918 1.58761,-2.09478 3.17525,-4.17855 4.76289,-6.2513 1.60967,-2.07272 3.29652,-4.09033 5.06058,-6.05284 0.61739,-0.70559 1.23481,-1.38916 1.85224,-2.05069 0.61739,-0.66149 1.30095,-1.28993 2.05069,-1.88532 0.0661,-0.0441 0.15433,-0.11022 0.2646,-0.19845 0.11023,-0.0882 0.22049,-0.16535 0.33076,-0.23153 0.13228,-0.0882 0.25356,-0.1433 0.36383,-0.16538 0.13228,-0.0441 0.25356,-0.0441 0.36383,0 0.0882,0.0882 0.12125,0.19848 0.0992,0.33076 -2e-5,0.11028 -0.0331,0.23155 -0.0992,0.36383 -0.0442,0.13233 -0.0993,0.26463 -0.16537,0.39691 -0.0662,0.11028 -0.11028,0.19848 -0.13231,0.2646 -0.44103,0.79384 -0.92614,1.56561 -1.45533,2.3153 -0.52923,0.72769 -1.11356,1.51047 -1.75301,2.34837 -1.6538,2.05071 -3.36271,4.0573 -5.12672,6.01977 -1.74201,1.94045 -3.47296,3.90294 -5.19288,5.88747 -0.74973,0.77177 -1.46637,1.54354 -2.14992,2.3153 -0.68357,0.77177 -1.41124,1.54353 -2.18299,2.31529 -0.0882,0.0882 -0.18744,0.16539 -0.29768,0.23153 -0.11026,0.0662 -0.19847,0.0772 -0.26461,0.0331" />
    </g>
    <g
       id="g3139"
       transform="matrix(1.8968654,0,0,1.8968654,-128.49408,-115.74049)">
      <path
         sodipodi:nodetypes="cccccccccccccccccccscccccccccccscccscccccccccccccccccccccccccccccsccccccccc"
         inkscape:connector-curvature="0"
         id="path3065"
         style="font-size:40px;font-style:normal;font-variant:normal;font-weight:bold;font-stretch:normal;line-height:125%;letter-spacing:0px;word-spacing:0px;fill:#666666;fill-opacity:1;stroke:none;font-family:Streamster;-inkscape-font-specification:Streamster Bold"
         d="m 184.09523,144.46529 c 0.0882,1.301 -0.0551,2.6571 -0.42998,4.06831 -0.3749,1.41124 -0.89308,2.80042 -1.55456,4.16753 -0.6395,1.36714 -1.36716,2.67914 -2.18299,3.936 -0.8159,1.25689 -1.60971,2.39249 -2.38145,3.4068 -0.88205,1.19073 -1.81919,2.3153 -2.81143,3.37371 -0.97025,1.05843 -1.98457,2.08378 -3.04296,3.07604 -0.90409,0.85997 -1.87431,1.71993 -2.91066,2.5799 -1.03639,0.88202 -2.12789,1.68686 -3.27449,2.41452 -1.12459,0.72767 -2.29326,1.35611 -3.50602,1.88532 -1.19074,0.52921 -2.40351,0.89304 -3.63832,1.09149 -0.77178,0.13231 -1.54354,0.13231 -2.3153,0 -0.74972,-0.11025 -1.44431,-0.40794 -2.08377,-0.89304 -0.52921,-0.46306 -0.92612,-1.00329 -1.19072,-1.62071 -0.24256,-0.59536 -0.39692,-1.23482 -0.46306,-1.91838 -0.0661,-0.68356 -0.0661,-1.37815 0,-2.08377 0.0882,-0.70561 0.20948,-1.38917 0.36383,-2.05069 0.35281,-1.45532 0.83792,-2.86655 1.45533,-4.23369 0.61741,-1.38917 1.312,-2.71219 2.08377,-3.96908 0.79381,-1.25685 1.65377,-2.4586 2.5799,-3.60524 0.9261,-1.1466 1.91837,-2.20502 2.97681,-3.17527 0.9261,-0.94814 1.8853,-1.81913 2.87758,-2.61297 1.0143,-0.79379 2.08375,-1.49941 3.20834,-2.11685 0.52919,-0.24252 1.08045,-0.48508 1.65378,-0.72766 0.59534,-0.24253 1.1907,-0.41893 1.78609,-0.52921 0.11022,-0.022 0.23151,-0.0331 0.36383,-0.0331 0.13228,-0.022 0.24253,-0.011 0.33076,0.0331 0.0882,0.0442 0.0551,0.11028 -0.0992,0.19845 -0.13233,0.0662 -0.2095,0.12131 -0.23153,0.16538 -0.24257,0.13233 -0.4741,0.25361 -0.69459,0.36383 -0.19848,0.11028 -0.41898,0.23156 -0.66151,0.36384 -1.08049,0.63948 -2.11687,1.36715 -3.10911,2.18299 -0.99229,0.81589 -1.94046,1.69791 -2.84451,2.64605 -0.99228,0.99229 -1.94046,2.05071 -2.8445,3.17527 -0.88203,1.10253 -1.70892,2.26018 -2.48068,3.47294 -0.83793,1.19074 -1.62071,2.43658 -2.34837,3.73755 -0.72767,1.30098 -1.36713,2.67914 -1.91839,4.13446 -0.22051,0.57331 -0.42999,1.2238 -0.62844,1.95146 -0.17641,0.72767 -0.26461,1.44431 -0.2646,2.14992 0.0221,0.70561 0.17639,1.34508 0.46306,1.91839 0.28665,0.57331 0.7938,0.97021 1.52148,1.19072 0.7056,0.24255 1.42224,0.28665 2.14992,0.1323 0.7497,-0.15435 1.45531,-0.37485 2.11684,-0.66151 1.16866,-0.50716 2.26015,-1.13559 3.27449,-1.88531 1.03635,-0.72767 2.03964,-1.52148 3.00988,-2.38145 1.41121,-1.19072 2.87756,-2.53579 4.39907,-4.03523 1.5435,-1.52147 3.0319,-3.14218 4.46521,-4.86212 1.4553,-1.71992 2.77832,-3.51703 3.96908,-5.39133 1.21274,-1.89632 2.19398,-3.82573 2.94373,-5.78824 0.19842,-0.48509 0.3638,-1.0143 0.49614,-1.58764 0.15431,-0.57328 0.23149,-1.13557 0.23153,-1.68686 0.022,-0.57328 -0.13748,-1.11351 -0.31386,-1.6207 -0.17644,-0.52918 -0.47412,-0.99224 -0.89304,-1.38918 -0.5513,-0.48508 -1.07536,-0.80481 -1.73684,-0.95919 -0.66154,-0.17638 -1.33408,-0.25355 -2.01761,-0.23153 -0.68359,0.0442 -1.36716,0.14335 -2.05069,0.29768 -0.66154,0.15438 -1.31203,0.35283 -1.95147,0.59536 -1.2569,0.37489 -2.4807,0.83795 -3.6714,1.38918 -1.16869,0.55129 -2.31532,1.17972 -3.43986,1.88531 -1.10255,0.70564 -2.12789,1.46638 -3.07604,2.28222 -0.92614,0.81589 -1.87431,1.66483 -2.84451,2.54683 -0.0661,0.0442 -0.14334,0.0993 -0.23153,0.16537 -0.0662,0.0442 -0.13232,0.0772 -0.19845,0.0992 -0.0882,0.0221 -0.11027,-0.022 -0.0661,-0.1323 0.0661,-0.11023 0.0992,-0.17639 0.0992,-0.19846 0.44099,-0.83789 0.98123,-1.6317 1.6207,-2.38144 0.63945,-0.7497 1.28994,-1.44429 1.95147,-2.08377 0.99225,-0.97019 2.05067,-1.81914 3.17526,-2.54683 1.1466,-0.74968 2.34835,-1.38914 3.60525,-1.91838 1.25685,-0.50714 2.55782,-0.87096 3.90292,-1.0915 1.34505,-0.24252 2.6791,-0.26457 4.00216,-0.0661 0.63943,0.11028 1.27889,0.27566 1.91839,0.49613 0.63942,0.22053 1.21273,0.58437 1.71993,1.0915 0.50713,0.48514 0.89301,1.05845 1.15765,1.71993 0.28662,0.66154 0.46302,1.35613 0.52921,2.08377" />
      <path
         d="m 184.09523,144.46529 c 0.0882,1.301 -0.0551,2.6571 -0.42998,4.06831 -0.3749,1.41124 -0.89308,2.80042 -1.55456,4.16753 -0.6395,1.36714 -1.36716,2.67914 -2.18299,3.936 -0.8159,1.25689 -1.60971,2.39249 -2.38145,3.4068 -0.88205,1.19073 -1.81919,2.3153 -2.81143,3.37371 -0.97025,1.05843 -1.98457,2.08378 -3.04296,3.07604 -0.90409,0.85997 -1.87431,1.71993 -2.91066,2.5799 -1.03639,0.88202 -2.12789,1.68686 -3.27449,2.41452 -1.12459,0.72767 -2.29326,1.35611 -3.50602,1.88532 -1.19074,0.52921 -2.40351,0.89304 -3.63832,1.09149 -0.77178,0.13231 -1.54354,0.13231 -2.3153,0 -0.74972,-0.11025 -1.44431,-0.40794 -2.08377,-0.89304 -0.52921,-0.46306 -0.92612,-1.00329 -1.19072,-1.62071 -0.24256,-0.59536 -0.39692,-1.23482 -0.46306,-1.91838 -0.0661,-0.68356 -0.0661,-1.37815 0,-2.08377 0.0882,-0.70561 0.20948,-1.38917 0.36383,-2.05069 0.35281,-1.45532 0.83792,-2.86655 1.45533,-4.23369 0.61741,-1.38917 1.312,-2.71219 2.08377,-3.96908 0.79381,-1.25685 1.65377,-2.4586 2.5799,-3.60524 0.9261,-1.1466 1.91837,-2.20502 2.97681,-3.17527 0.9261,-0.94814 1.8853,-1.81913 2.87758,-2.61297 1.0143,-0.79379 2.08375,-1.49941 3.20834,-2.11685 0.52919,-0.24252 1.08045,-0.48508 1.65378,-0.72766 0.59534,-0.24253 1.1907,-0.41893 1.78609,-0.52921 0.11022,-0.022 0.23151,-0.0331 0.36383,-0.0331 0.13228,-0.022 0.24253,-0.011 0.33076,0.0331 0.0882,0.0442 0.0551,0.11028 -0.0992,0.19845 -0.13233,0.0662 -0.2095,0.12131 -0.23153,0.16538 -0.24257,0.13233 -0.4741,0.25361 -0.69459,0.36383 -0.19848,0.11028 -0.41898,0.23156 -0.66151,0.36384 -1.08049,0.63948 -2.11687,1.36715 -3.10911,2.18299 -0.99229,0.81589 -1.94046,1.69791 -2.84451,2.64605 -0.99228,0.99229 -1.94046,2.05071 -2.8445,3.17527 -0.88203,1.10253 -1.70892,2.26018 -2.48068,3.47294 -0.83793,1.19074 -1.62071,2.43658 -2.34837,3.73755 -0.72767,1.30098 -1.36713,2.67914 -1.91839,4.13446 -0.22051,0.57331 -0.42999,1.2238 -0.62844,1.95146 -0.17641,0.72767 -0.26461,1.44431 -0.2646,2.14992 0.0221,0.70561 0.17639,1.34508 0.46306,1.91839 0.28665,0.57331 0.7938,0.97021 1.52148,1.19072 0.7056,0.24255 1.42224,0.28665 2.14992,0.1323 0.7497,-0.15435 1.45531,-0.37485 2.11684,-0.66151 1.16866,-0.50716 2.26015,-1.13559 3.27449,-1.88531 1.03635,-0.72767 2.03964,-1.52148 3.00988,-2.38145 1.41121,-1.19072 2.87756,-2.53579 4.39907,-4.03523 1.5435,-1.52147 3.0319,-3.14218 4.46521,-4.86212 1.4553,-1.71992 2.77832,-3.51703 3.96908,-5.39133 1.21274,-1.89632 2.19398,-3.82573 2.94373,-5.78824 0.19842,-0.48509 0.3638,-1.0143 0.49614,-1.58764 0.15431,-0.57328 0.23149,-1.13557 0.23153,-1.68686 0.022,-0.57328 -0.13748,-1.11351 -0.31386,-1.6207 -0.17644,-0.52918 -0.47412,-0.99224 -0.89304,-1.38918 -0.5513,-0.48508 -1.07536,-0.80481 -1.73684,-0.95919 -0.66154,-0.17638 -1.33408,-0.25355 -2.01761,-0.23153 -0.68359,0.0442 -1.36716,0.14335 -2.05069,0.29768 -0.66154,0.15438 -1.31203,0.35283 -1.95147,0.59536 -1.2569,0.37489 -2.4807,0.83795 -3.6714,1.38918 -1.16869,0.55129 -2.31532,1.17972 -3.43986,1.88531 -1.10255,0.70564 -2.12789,1.46638 -3.07604,2.28222 -0.92614,0.81589 -1.87431,1.66483 -2.84451,2.54683 -0.0661,0.0442 -0.14334,0.0993 -0.23153,0.16537 -0.0662,0.0442 -0.13232,0.0772 -0.19845,0.0992 -0.0882,0.0221 -0.11027,-0.022 -0.0661,-0.1323 0.0661,-0.11023 0.0992,-0.17639 0.0992,-0.19846 0.44099,-0.83789 0.98123,-1.6317 1.6207,-2.38144 0.63945,-0.7497 1.28994,-1.44429 1.95147,-2.08377 0.99225,-0.97019 2.05067,-1.81914 3.17526,-2.54683 1.1466,-0.74968 2.34835,-1.38914 3.60525,-1.91838 1.25685,-0.50714 2.55782,-0.87096 3.90292,-1.0915 1.34505,-0.24252 2.6791,-0.26457 4.00216,-0.0661 0.63943,0.11028 1.27889,0.27566 1.91839,0.49613 0.63942,0.22053 1.21273,0.58437 1.71993,1.0915 0.50713,0.48514 0.89301,1.05845 1.15765,1.71993 0.28662,0.66154 0.46302,1.35613 0.52921,2.08377"
         style="font-size:40px;font-style:normal;font-variant:normal;font-weight:bold;font-stretch:normal;line-height:125%;letter-spacing:0px;word-spacing:0px;fill:#666666;fill-opacity:1;stroke:none;font-family:Streamster;-inkscape-font-specification:Streamster Bold"
         id="path3079"
         inkscape:connector-curvature="0"
         sodipodi:nodetypes="cccccccccccccccccccscccccccccccscccscccccccccccccccccccccccccccccsccccccccc" />
      <path
         d="m 183.49523,143.16528 c 0.0882,1.301 -0.0551,2.6571 -0.42998,4.06831 -0.3749,1.41124 -0.89308,2.80042 -1.55456,4.16753 -0.6395,1.36714 -1.36716,2.67914 -2.18299,3.936 -0.8159,1.25689 -1.60971,2.39249 -2.38145,3.4068 -0.88205,1.19073 -1.81919,2.3153 -2.81143,3.37371 -0.97025,1.05843 -1.98457,2.08378 -3.04296,3.07604 -0.90409,0.85997 -1.87431,1.71993 -2.91066,2.5799 -1.03639,0.88202 -2.12789,1.68686 -3.27449,2.41452 -1.12459,0.72767 -2.29326,1.35611 -3.50602,1.88532 -1.19074,0.52921 -2.40351,0.89304 -3.63832,1.09149 -0.77178,0.13231 -1.54354,0.13231 -2.3153,0 -0.74972,-0.11025 -1.44431,-0.40794 -2.08377,-0.89304 -0.52921,-0.46306 -0.92612,-1.00329 -1.19072,-1.62071 -0.24256,-0.59536 -0.39692,-1.23482 -0.46306,-1.91838 -0.0661,-0.68356 -0.0661,-1.37815 0,-2.08377 0.0882,-0.70561 0.20948,-1.38917 0.36383,-2.05069 0.35281,-1.45532 0.83792,-2.86655 1.45533,-4.23369 0.61741,-1.38917 1.312,-2.71219 2.08377,-3.96908 0.79381,-1.25685 1.65377,-2.4586 2.5799,-3.60524 0.9261,-1.1466 1.91837,-2.20502 2.97681,-3.17527 0.9261,-0.94814 1.8853,-1.81913 2.87758,-2.61297 1.0143,-0.79379 2.08375,-1.49941 3.20834,-2.11685 0.52919,-0.24252 1.08045,-0.48508 1.65378,-0.72766 0.59534,-0.24253 1.1907,-0.41893 1.78609,-0.52921 0.11022,-0.022 0.23151,-0.0331 0.36383,-0.0331 0.13228,-0.022 0.24253,-0.011 0.33076,0.0331 0.0882,0.0442 0.0551,0.11028 -0.0992,0.19845 -0.13233,0.0662 -0.2095,0.12131 -0.23153,0.16538 -0.24257,0.13233 -0.4741,0.25361 -0.69459,0.36383 -0.19848,0.11028 -0.41898,0.23156 -0.66151,0.36384 -1.08049,0.63948 -2.11687,1.36715 -3.10911,2.18299 -0.99229,0.81589 -1.94046,1.69791 -2.84451,2.64605 -0.99228,0.99229 -1.94046,2.05071 -2.8445,3.17527 -0.88203,1.10253 -1.70892,2.26018 -2.48068,3.47294 -0.83793,1.19074 -1.62071,2.43658 -2.34837,3.73755 -0.72767,1.30098 -1.36713,2.67914 -1.91839,4.13446 -0.22051,0.57331 -0.42999,1.2238 -0.62844,1.95146 -0.17641,0.72767 -0.26461,1.44431 -0.2646,2.14992 0.0221,0.70561 0.17639,1.34508 0.46306,1.91839 0.28665,0.57331 0.7938,0.97021 1.52148,1.19072 0.7056,0.24255 1.42224,0.28665 2.14992,0.1323 0.7497,-0.15435 1.45531,-0.37485 2.11684,-0.66151 1.16866,-0.50716 2.26015,-1.13559 3.27449,-1.88531 1.03635,-0.72767 2.03964,-1.52148 3.00988,-2.38145 1.41121,-1.19072 2.87756,-2.53579 4.39907,-4.03523 1.5435,-1.52147 3.0319,-3.14218 4.46521,-4.86212 1.4553,-1.71992 2.77832,-3.51703 3.96908,-5.39133 1.21274,-1.89632 2.19398,-3.82573 2.94373,-5.78824 0.19842,-0.48509 0.3638,-1.0143 0.49614,-1.58764 0.15431,-0.57328 0.23149,-1.13557 0.23153,-1.68686 0.022,-0.57328 -0.13748,-1.11351 -0.31386,-1.6207 -0.17644,-0.52918 -0.47412,-0.99224 -0.89304,-1.38918 -0.5513,-0.48508 -1.07536,-0.80481 -1.73684,-0.95919 -0.66154,-0.17638 -1.33408,-0.25355 -2.01761,-0.23153 -0.68359,0.0442 -1.36716,0.14335 -2.05069,0.29768 -0.66154,0.15438 -1.31203,0.35283 -1.95147,0.59536 -1.2569,0.37489 -2.4807,0.83795 -3.6714,1.38918 -1.16869,0.55129 -2.31532,1.17972 -3.43986,1.88531 -1.10255,0.70564 -2.12789,1.46638 -3.07604,2.28222 -0.92614,0.81589 -1.87431,1.66483 -2.84451,2.54683 -0.0661,0.0442 -0.14334,0.0993 -0.23153,0.16537 -0.0662,0.0442 -0.13232,0.0772 -0.19845,0.0992 -0.0882,0.0221 -0.11027,-0.022 -0.0661,-0.1323 0.0661,-0.11023 0.0992,-0.17639 0.0992,-0.19846 0.44099,-0.83789 0.98123,-1.6317 1.6207,-2.38144 0.63945,-0.7497 1.28994,-1.44429 1.95147,-2.08377 0.99225,-0.97019 2.05067,-1.81914 3.17526,-2.54683 1.1466,-0.74968 2.34835,-1.38914 3.60525,-1.91838 1.25685,-0.50714 2.55782,-0.87096 3.90292,-1.0915 1.34505,-0.24252 2.6791,-0.26457 4.00216,-0.0661 0.63943,0.11028 1.27889,0.27566 1.91839,0.49613 0.63942,0.22053 1.21273,0.58437 1.71993,1.0915 0.50713,0.48514 0.89301,1.05845 1.15765,1.71993 0.28662,0.66154 0.46302,1.35613 0.52921,2.08377"
         style="font-size:40px;font-style:normal;font-variant:normal;font-weight:bold;font-stretch:normal;line-height:125%;letter-spacing:0px;word-spacing:0px;fill:#f9f9f9;fill-opacity:1;stroke:none;font-family:Streamster;-inkscape-font-specification:Streamster Bold"
         id="path3000"
         inkscape:connector-curvature="0"
         sodipodi:nodetypes="cccccccccccccccccccscccccccccccscccscccccccccccccccccccccccccccccsccccccccc" />
      <path
         sodipodi:nodetypes="cccccccccccccccccccscccccccccccscccscccccccccccccccccccccccccccccsccccccccc"
         inkscape:connector-curvature="0"
         id="path3019"
         style="font-size:40px;font-style:normal;font-variant:normal;font-weight:bold;font-stretch:normal;line-height:125%;letter-spacing:0px;word-spacing:0px;fill:#f9f9f9;fill-opacity:1;stroke:none;font-family:Streamster;-inkscape-font-specification:Streamster Bold"
         d="m 183.49523,143.16528 c 0.0882,1.301 -0.0551,2.6571 -0.42998,4.06831 -0.3749,1.41124 -0.89308,2.80042 -1.55456,4.16753 -0.6395,1.36714 -1.36716,2.67914 -2.18299,3.936 -0.8159,1.25689 -1.60971,2.39249 -2.38145,3.4068 -0.88205,1.19073 -1.81919,2.3153 -2.81143,3.37371 -0.97025,1.05843 -1.98457,2.08378 -3.04296,3.07604 -0.90409,0.85997 -1.87431,1.71993 -2.91066,2.5799 -1.03639,0.88202 -2.12789,1.68686 -3.27449,2.41452 -1.12459,0.72767 -2.29326,1.35611 -3.50602,1.88532 -1.19074,0.52921 -2.40351,0.89304 -3.63832,1.09149 -0.77178,0.13231 -1.54354,0.13231 -2.3153,0 -0.74972,-0.11025 -1.44431,-0.40794 -2.08377,-0.89304 -0.52921,-0.46306 -0.92612,-1.00329 -1.19072,-1.62071 -0.24256,-0.59536 -0.39692,-1.23482 -0.46306,-1.91838 -0.0661,-0.68356 -0.0661,-1.37815 0,-2.08377 0.0882,-0.70561 0.20948,-1.38917 0.36383,-2.05069 0.35281,-1.45532 0.83792,-2.86655 1.45533,-4.23369 0.61741,-1.38917 1.312,-2.71219 2.08377,-3.96908 0.79381,-1.25685 1.65377,-2.4586 2.5799,-3.60524 0.9261,-1.1466 1.91837,-2.20502 2.97681,-3.17527 0.9261,-0.94814 1.8853,-1.81913 2.87758,-2.61297 1.0143,-0.79379 2.08375,-1.49941 3.20834,-2.11685 0.52919,-0.24252 1.08045,-0.48508 1.65378,-0.72766 0.59534,-0.24253 1.1907,-0.41893 1.78609,-0.52921 0.11022,-0.022 0.23151,-0.0331 0.36383,-0.0331 0.13228,-0.022 0.24253,-0.011 0.33076,0.0331 0.0882,0.0442 0.0551,0.11028 -0.0992,0.19845 -0.13233,0.0662 -0.2095,0.12131 -0.23153,0.16538 -0.24257,0.13233 -0.4741,0.25361 -0.69459,0.36383 -0.19848,0.11028 -0.41898,0.23156 -0.66151,0.36384 -1.08049,0.63948 -2.11687,1.36715 -3.10911,2.18299 -0.99229,0.81589 -1.94046,1.69791 -2.84451,2.64605 -0.99228,0.99229 -1.94046,2.05071 -2.8445,3.17527 -0.88203,1.10253 -1.70892,2.26018 -2.48068,3.47294 -0.83793,1.19074 -1.62071,2.43658 -2.34837,3.73755 -0.72767,1.30098 -1.36713,2.67914 -1.91839,4.13446 -0.22051,0.57331 -0.42999,1.2238 -0.62844,1.95146 -0.17641,0.72767 -0.26461,1.44431 -0.2646,2.14992 0.0221,0.70561 0.17639,1.34508 0.46306,1.91839 0.28665,0.57331 0.7938,0.97021 1.52148,1.19072 0.7056,0.24255 1.42224,0.28665 2.14992,0.1323 0.7497,-0.15435 1.45531,-0.37485 2.11684,-0.66151 1.16866,-0.50716 2.26015,-1.13559 3.27449,-1.88531 1.03635,-0.72767 2.03964,-1.52148 3.00988,-2.38145 1.41121,-1.19072 2.87756,-2.53579 4.39907,-4.03523 1.5435,-1.52147 3.0319,-3.14218 4.46521,-4.86212 1.4553,-1.71992 2.77832,-3.51703 3.96908,-5.39133 1.21274,-1.89632 2.19398,-3.82573 2.94373,-5.78824 0.19842,-0.48509 0.3638,-1.0143 0.49614,-1.58764 0.15431,-0.57328 0.23149,-1.13557 0.23153,-1.68686 0.022,-0.57328 -0.13748,-1.11351 -0.31386,-1.6207 -0.17644,-0.52918 -0.47412,-0.99224 -0.89304,-1.38918 -0.5513,-0.48508 -1.07536,-0.80481 -1.73684,-0.95919 -0.66154,-0.17638 -1.33408,-0.25355 -2.01761,-0.23153 -0.68359,0.0442 -1.36716,0.14335 -2.05069,0.29768 -0.66154,0.15438 -1.31203,0.35283 -1.95147,0.59536 -1.2569,0.37489 -2.4807,0.83795 -3.6714,1.38918 -1.16869,0.55129 -2.31532,1.17972 -3.43986,1.88531 -1.10255,0.70564 -2.12789,1.46638 -3.07604,2.28222 -0.92614,0.81589 -1.87431,1.66483 -2.84451,2.54683 -0.0661,0.0442 -0.14334,0.0993 -0.23153,0.16537 -0.0662,0.0442 -0.13232,0.0772 -0.19845,0.0992 -0.0882,0.0221 -0.11027,-0.022 -0.0661,-0.1323 0.0661,-0.11023 0.0992,-0.17639 0.0992,-0.19846 0.44099,-0.83789 0.98123,-1.6317 1.6207,-2.38144 0.63945,-0.7497 1.28994,-1.44429 1.95147,-2.08377 0.99225,-0.97019 2.05067,-1.81914 3.17526,-2.54683 1.1466,-0.74968 2.34835,-1.38914 3.60525,-1.91838 1.25685,-0.50714 2.55782,-0.87096 3.90292,-1.0915 1.34505,-0.24252 2.6791,-0.26457 4.00216,-0.0661 0.63943,0.11028 1.27889,0.27566 1.91839,0.49613 0.63942,0.22053 1.21273,0.58437 1.71993,1.0915 0.50713,0.48514 0.89301,1.05845 1.15765,1.71993 0.28662,0.66154 0.46302,1.35613 0.52921,2.08377" />
    </g>
  </g>
</svg>
