<?xml version="1.0" encoding="UTF-8" standalone="no"?>
<svg
   xmlns:dc="http://purl.org/dc/elements/1.1/"
   xmlns:cc="http://creativecommons.org/ns#"
   xmlns:rdf="http://www.w3.org/1999/02/22-rdf-syntax-ns#"
   xmlns:svg="http://www.w3.org/2000/svg"
   xmlns="http://www.w3.org/2000/svg"
   xmlns:sodipodi="http://sodipodi.sourceforge.net/DTD/sodipodi-0.dtd"
   xmlns:inkscape="http://www.inkscape.org/namespaces/inkscape"
   version="1.1"
   width="1758.3777"
   height="410.87466"
   x="0"
   y="0"
   viewBox="0 0 206.0599 48.149384"
   xml:space="preserve"
   class=""
   id="svg16"
   sodipodi:docname="video.svg"
   inkscape:version="1.0 (4035a4f, 2020-05-01)"><metadata
     id="metadata22"><rdf:RDF><cc:Work
         rdf:about=""><dc:format>image/svg+xml</dc:format><dc:type
           rdf:resource="http://purl.org/dc/dcmitype/StillImage" /><dc:title></dc:title></cc:Work></rdf:RDF></metadata><defs
     id="defs20"><rect
       x="63.989872"
       y="23.016121"
       width="145.68443"
       height="78.912415"
       id="rect26" /></defs><sodipodi:namedview
     inkscape:document-rotation="0"
     pagecolor="#ffffff"
     bordercolor="#666666"
     borderopacity="1"
     objecttolerance="10"
     gridtolerance="10"
     guidetolerance="10"
     inkscape:pageopacity="0"
     inkscape:pageshadow="2"
     inkscape:window-width="1680"
     inkscape:window-height="944"
     id="namedview18"
     showgrid="false"
     fit-margin-top="0"
     fit-margin-left="0"
     fit-margin-right="0"
     fit-margin-bottom="0"
     inkscape:zoom="0.20324971"
     inkscape:cx="-38.741899"
     inkscape:cy="1201.7597"
     inkscape:window-x="0"
     inkscape:window-y="25"
     inkscape:window-maximized="1"
     inkscape:current-layer="svg16" /><g
     id="g14"
     transform="translate(-3.59375,-5.57375)"><path
       fill="#61dafb"
       d="M 52.24,6.98 H 7.75 C 6.23,6.98 5,8.22 5,9.73 v 30.49 c 0,1.52 1.23,2.76 2.75,2.76 h 44.49 c 1.52,0 2.76,-1.24 2.76,-2.76 V 9.73 C 55,8.22 53.76,6.98 52.24,6.98 Z m -17.42,19.74 -7.23,5.05 a 2.115,2.115 0 0 1 -2.19,0.14 c -0.7,-0.37 -1.13,-1.09 -1.13,-1.88 v -10.1 c 0,-0.79 0.43,-1.51 1.13,-1.88 0.71,-0.36 1.54,-0.31 2.19,0.15 l 7.23,5.04 c 0.57,0.4 0.9,1.05 0.9,1.74 0,0.69 -0.33,1.34 -0.9,1.74 z"
       data-original="#3773b5"
       class=""
       id="path10" /><path
       fill="#949597"
       d="M 54,48.28 H 17.44 C 17,46.7 15.57,45.53 13.85,45.53 c -1.71,0 -3.15,1.17 -3.59,2.75 H 6 c -0.56,0 -1,0.44 -1,1 0,0.55 0.44,1 1,1 h 4.26 c 0.44,1.57 1.88,2.74 3.59,2.74 1.72,0 3.15,-1.17 3.59,-2.74 H 54 c 0.55,0 1,-0.45 1,-1 0,-0.56 -0.45,-1 -1,-1 z"
       data-original="#44464a"
       class=""
       id="path12" /></g><text
     xml:space="preserve"
     id="text24"
     style="font-size:43.75000000000000000px;line-height:1.25;font-family:sans-serif;word-spacing:0px;white-space:pre;shape-inside:url(#rect26);fill:#61dafb;fill-opacity:1;"
     transform="translate(-5.1731231,-25.513335)"><tspan
       x="63.990234"
       y="62.930076"><tspan
         style="font-style:normal;font-variant:normal;font-weight:900;font-stretch:normal;font-size:43.75px;font-family:Avenir;-inkscape-font-specification:'Avenir Heavy';fill:#61dafb;fill-opacity:1">VIDEO</tspan></tspan></text></svg>
